<?xml version="1.0" standalone="no"?>
<!DOCTYPE svg PUBLIC "-//W3C//DTD SVG 20010904//EN"
 "http://www.w3.org/TR/2001/REC-SVG-20010904/DTD/svg10.dtd">
<svg version="1.0" xmlns="http://www.w3.org/2000/svg"
 width="564.000000pt" height="1009.000000pt" viewBox="0 0 564.000000 1009.000000"
 preserveAspectRatio="xMidYMid meet">

<g transform="translate(0.000000,1009.000000) scale(0.100000,-0.100000)"
fill="#000000" stroke="none">
<path d="M1495 9409 c-246 -259 -607 -714 -673 -845 l-35 -72 113 -163 c62
-90 114 -169 117 -175 2 -7 -60 -17 -187 -29 -104 -10 -195 -22 -201 -25 -6
-4 -39 -121 -74 -261 -58 -237 -64 -272 -91 -533 l-28 -279 28 -318 28 -317
78 -272 c43 -149 80 -273 82 -275 2 -2 93 41 201 96 l198 101 -19 -39 c-11
-21 -65 -120 -120 -221 -56 -100 -106 -197 -113 -215 -11 -31 -8 -39 89 -212
l101 -180 276 -318 c152 -174 281 -317 286 -317 16 0 10 84 -17 216 l-26 129
17 200 17 200 66 175 c63 168 70 181 171 322 l106 147 81 26 c70 21 101 25
213 25 l131 0 25 49 c13 27 29 52 33 55 13 8 157 -250 165 -294 4 -21 32 -67
70 -115 l63 -80 -11 -679 -10 -678 -74 -67 -74 -67 46 -70 45 -69 12 -200 c7
-126 14 -744 18 -1668 l7 -1468 -33 -41 c-18 -23 -30 -43 -27 -46 2 -3 27 -10
55 -16 49 -11 53 -15 89 -76 l37 -65 69 -12 c53 -10 90 -10 153 -2 l82 11 41
68 c37 63 43 69 82 75 70 12 73 17 36 59 l-32 38 1 941 c3 1279 10 2006 24
2225 l11 184 38 56 c22 32 39 61 39 66 0 5 -31 41 -69 80 l-68 71 -7 585 c-3
322 -9 626 -12 675 l-5 90 65 79 c41 51 67 92 71 115 6 34 144 301 155 301 3
0 18 -25 35 -55 l29 -55 136 0 c118 0 145 -3 212 -26 l76 -25 100 -132 c54
-73 104 -143 111 -155 7 -13 41 -98 75 -190 l63 -167 17 -205 17 -205 -26
-124 c-27 -132 -32 -215 -14 -209 6 2 133 144 284 317 227 261 281 328 325
409 29 53 99 180 156 282 l102 185 95 330 95 330 22 253 c12 140 19 256 16
259 -6 6 -66 19 -304 63 -95 18 -170 36 -165 40 4 4 111 44 237 89 126 44 230
82 231 83 1 2 -8 98 -20 213 -21 186 -32 245 -101 519 l-77 308 -109 210 c-97
188 -126 235 -270 427 -189 253 -521 628 -526 595 -2 -12 3 -95 11 -185 15
-163 14 -167 -13 -380 -26 -202 -30 -221 -76 -336 l-49 -123 -130 -99 c-124
-95 -137 -102 -270 -150 -77 -28 -166 -54 -197 -57 -41 -5 -59 -11 -62 -23 -2
-9 -12 -51 -22 -94 -15 -66 -21 -78 -41 -82 -13 -3 -34 -7 -47 -10 -21 -4 -24
-1 -29 38 -4 23 -9 91 -13 151 l-7 109 -38 15 c-30 11 -55 37 -109 108 -66 88
-71 99 -98 206 l-28 113 -125 0 -124 0 -27 -113 c-24 -97 -33 -119 -71 -165
-23 -28 -56 -71 -72 -95 -20 -28 -42 -46 -66 -53 l-36 -11 -7 -87 c-3 -47 -9
-116 -12 -153 l-6 -66 -37 5 c-59 9 -65 17 -86 109 l-21 88 -69 12 c-39 6
-126 33 -194 58 -113 42 -135 54 -257 147 -73 55 -136 108 -139 117 -91 232
-93 242 -119 453 -25 203 -25 209 -10 373 8 92 14 174 12 183 -2 10 -23 -6
-63 -48z"/>
</g>
</svg>
