<?xml version="1.0" standalone="no"?>
<!DOCTYPE svg PUBLIC "-//W3C//DTD SVG 20010904//EN"
 "http://www.w3.org/TR/2001/REC-SVG-20010904/DTD/svg10.dtd">
<svg version="1.0" xmlns="http://www.w3.org/2000/svg"
 width="659.000000pt" height="1025.000000pt" viewBox="0 0 659.000000 1025.000000"
 preserveAspectRatio="xMidYMid meet">

<g transform="translate(0.000000,1025.000000) scale(0.100000,-0.100000)"
fill="#000000" stroke="none">
<path d="M3302 9058 l-73 -593 -117 -267 -117 -267 -185 -85 -185 -85 -225
-41 -225 -42 -189 66 c-104 37 -191 64 -194 61 -3 -3 22 -126 55 -274 l60
-270 -47 -225 -46 -224 -79 -124 c-43 -68 -89 -141 -103 -164 -20 -32 -71 -70
-261 -195 l-236 -155 -205 -43 c-113 -24 -209 -46 -213 -48 -5 -3 67 -43 160
-88 l168 -84 243 -223 244 -223 139 -355 140 -355 -1 -252 -1 -253 -45 -197
c-25 -109 -49 -215 -54 -237 -4 -21 -5 -34 0 -30 20 21 610 854 610 861 0 5
-30 42 -66 83 -175 201 -306 450 -373 712 -47 182 -56 257 -56 478 0 286 35
471 135 714 202 490 599 837 1080 942 71 16 127 19 345 19 230 -1 270 -3 350
-22 610 -144 1059 -654 1180 -1338 23 -126 30 -376 16 -510 -41 -379 -190
-726 -425 -995 -36 -41 -66 -79 -66 -83 0 -7 590 -839 610 -861 5 -4 4 9 0 30
-5 22 -29 128 -54 237 l-45 197 -1 253 -1 252 140 355 139 354 243 224 244
223 168 84 c93 45 165 85 160 88 -4 2 -100 24 -213 48 l-205 43 -236 155 -236
154 -103 165 -104 165 -46 224 -47 224 60 270 c33 148 58 271 55 274 -3 3 -90
-24 -194 -61 l-189 -65 -230 42 -230 43 -180 84 -181 84 -116 267 -117 266
-73 593 c-40 325 -75 592 -78 592 -3 0 -38 -267 -78 -592z"/>
<path d="M3354 7000 c-16 -96 -21 -111 -39 -114 -11 -3 -51 -9 -88 -15 -37 -7
-98 -23 -135 -37 -37 -14 -74 -28 -83 -30 -11 -4 -46 28 -111 99 -52 57 -97
110 -100 118 -3 8 -8 12 -11 9 -5 -5 52 -189 73 -235 25 -56 23 -60 -49 -118
-38 -31 -97 -90 -130 -131 -63 -77 -64 -77 -116 -56 -51 21 -247 81 -251 78
-2 -3 24 -28 59 -56 34 -28 82 -71 107 -96 24 -25 50 -46 57 -46 19 0 16 -24
-11 -99 -23 -66 -39 -134 -51 -222 l-6 -47 -62 -6 c-34 -4 -66 -10 -72 -14 -5
-4 -14 -7 -20 -7 -36 -2 -155 -28 -155 -34 0 -7 35 -15 219 -49 l95 -17 12
-75 c13 -72 35 -145 67 -221 l16 -35 -67 -65 c-37 -35 -72 -66 -77 -68 -6 -2
-35 -26 -65 -54 l-54 -50 34 8 c19 4 41 11 50 15 8 5 69 25 134 45 l120 37 70
-75 c55 -58 152 -144 173 -152 3 -1 -16 -74 -24 -95 -27 -67 -78 -230 -73
-230 4 0 26 24 48 53 23 28 72 85 109 126 l69 74 72 -22 72 -22 0 -236 0 -237
35 -36 34 -35 -23 -1520 -23 -1520 -50 -130 -51 -130 -6 -215 -6 -216 127 -82
c120 -78 129 -82 183 -82 54 0 63 4 183 82 l127 82 -6 216 -6 215 -51 130 -51
130 -23 1520 -22 1520 34 35 35 35 2 239 3 239 70 20 70 19 68 -73 c37 -41 86
-98 109 -126 22 -29 44 -53 48 -53 5 0 -46 163 -73 230 -8 21 -27 94 -24 95 1
1 32 25 69 54 53 41 135 126 165 170 4 5 234 -64 281 -85 62 -27 64 -14 6 39
-31 28 -59 51 -60 50 -2 -1 -35 28 -73 64 l-70 67 16 36 c32 75 54 148 67 220
l12 75 90 15 c49 8 94 18 99 22 6 3 36 9 68 13 31 4 57 11 57 15 0 7 -116 33
-155 35 -5 0 -15 3 -20 7 -6 4 -38 10 -72 14 l-62 6 -6 47 c-12 88 -28 156
-51 222 -27 75 -30 99 -11 99 7 0 33 21 57 46 25 25 73 68 107 96 35 28 61 53
59 56 -4 3 -200 -57 -251 -78 -52 -21 -53 -21 -116 56 -33 41 -92 100 -130
130 -61 50 -68 59 -63 83 4 14 10 31 14 36 5 6 14 30 21 55 15 55 14 50 23 75
29 79 35 99 30 104 -4 3 -9 0 -12 -8 -3 -8 -48 -61 -100 -118 -65 -71 -100
-103 -111 -99 -9 2 -46 16 -83 30 -37 14 -98 30 -135 37 -37 6 -77 12 -88 15
-18 3 -23 18 -39 114 -10 60 -22 110 -26 110 -4 0 -16 -50 -26 -110z"/>
</g>
</svg>
