<?xml version="1.0" standalone="no"?>
<!DOCTYPE svg PUBLIC "-//W3C//DTD SVG 20010904//EN"
 "http://www.w3.org/TR/2001/REC-SVG-20010904/DTD/svg10.dtd">
<svg version="1.0" xmlns="http://www.w3.org/2000/svg"
 width="894.000000pt" height="860.000000pt" viewBox="0 0 894.000000 860.000000"
 preserveAspectRatio="xMidYMid meet">

<g transform="translate(0.000000,860.000000) scale(0.100000,-0.100000)"
fill="#000000" stroke="none">
<path d="M2906 8593 c-3 -4 -37 -8 -74 -9 -37 -2 -112 -13 -167 -25 -55 -12
-112 -24 -127 -26 -16 -3 -28 -9 -28 -14 0 -5 -13 -9 -30 -9 -16 0 -30 -4 -30
-10 0 -5 -7 -10 -15 -10 -8 0 -38 -11 -67 -25 -28 -14 -58 -25 -65 -25 -7 0
-13 -4 -13 -10 0 -5 -4 -10 -9 -10 -15 0 -127 -69 -146 -91 -10 -10 -23 -19
-29 -19 -6 0 -38 -29 -72 -65 -69 -73 -94 -78 -94 -19 0 19 5 34 10 34 6 0 10
23 10 50 0 28 4 58 9 68 4 9 13 31 18 47 6 17 14 39 19 50 7 19 7 19 -10 3 -9
-10 -22 -18 -28 -18 -6 0 -18 -8 -27 -18 -9 -10 -33 -31 -53 -46 -44 -33 -138
-127 -176 -175 -15 -19 -31 -39 -37 -45 -25 -27 -65 -86 -65 -94 0 -5 -9 -17
-20 -27 -12 -11 -28 -35 -38 -54 -9 -20 -22 -42 -29 -49 -6 -7 -27 -43 -45
-80 -18 -37 -35 -69 -38 -72 -6 -6 -23 -43 -45 -100 -9 -25 -21 -53 -26 -62
-5 -10 -9 -27 -9 -38 0 -11 -4 -20 -9 -20 -7 0 -13 -27 -26 -120 -6 -46 -17
-70 -31 -70 -8 0 -14 10 -14 25 0 14 -4 25 -10 25 -5 0 -10 13 -10 29 0 17 -4
32 -9 35 -10 6 -26 150 -24 205 l2 35 -22 -25 c-21 -22 -53 -84 -97 -184 -33
-76 -58 -182 -67 -285 -3 -36 -9 -69 -14 -75 -11 -11 -12 -355 -1 -355 5 0 9
-25 10 -55 1 -31 5 -61 9 -68 4 -7 8 -19 8 -27 1 -39 18 -121 26 -126 5 -3 9
-16 9 -30 0 -13 5 -24 10 -24 6 0 10 -9 10 -20 0 -11 4 -28 9 -38 4 -9 15 -33
23 -52 25 -58 43 -95 48 -100 3 -3 14 -22 25 -43 11 -21 28 -47 37 -57 10 -11
18 -22 18 -25 0 -3 11 -18 24 -33 13 -15 35 -40 50 -57 l25 -30 1 33 c0 17 -4
32 -10 32 -6 0 -10 28 -10 63 0 35 -3 67 -7 70 -13 13 3 296 18 311 5 6 9 23
9 39 0 15 4 36 9 45 5 9 11 31 14 48 9 58 48 164 59 164 5 0 8 9 8 20 0 17 8
38 28 69 6 11 31 -37 32 -61 0 -16 5 -28 10 -28 6 0 10 -8 10 -18 0 -11 6 -32
14 -48 7 -16 20 -44 27 -61 8 -18 17 -33 21 -33 5 0 8 -9 8 -20 0 -11 5 -20
10 -20 6 0 10 -9 10 -20 0 -11 4 -20 9 -20 5 0 11 -8 15 -17 5 -18 26 -54 36
-63 3 -3 26 -34 52 -70 67 -95 212 -231 297 -280 14 -8 33 -22 41 -30 8 -8 33
-24 55 -35 22 -11 42 -22 45 -26 3 -3 13 -8 22 -12 15 -5 16 0 12 46 -3 29 -8
59 -11 67 -8 24 -3 256 8 355 5 50 16 124 24 165 25 121 29 168 15 185 -15 18
-22 243 -8 305 5 25 12 60 15 78 3 18 9 35 14 38 5 3 9 16 9 30 0 13 5 24 10
24 6 0 10 6 10 14 0 19 50 116 72 140 10 11 18 23 18 27 0 11 65 76 119 119
24 19 50 41 57 48 8 7 18 10 24 7 5 -3 10 -1 10 4 0 6 9 11 20 11 11 0 20 5
20 10 0 6 9 10 20 10 11 0 20 4 20 9 0 30 346 49 374 21 6 -6 25 -10 43 -10
18 0 33 -4 33 -10 0 -5 7 -10 16 -10 9 0 28 -8 42 -19 15 -10 38 -22 51 -26
32 -10 151 -132 176 -180 11 -22 28 -48 38 -59 9 -11 17 -28 17 -38 0 -10 5
-18 10 -18 6 0 10 -11 10 -24 0 -14 4 -27 9 -31 5 -3 12 -31 16 -63 3 -31 10
-65 15 -74 13 -24 13 -378 0 -378 -5 0 -10 -14 -10 -31 0 -41 -26 -144 -49
-194 -36 -77 -51 -113 -51 -123 0 -5 -7 -15 -15 -22 -9 -7 -22 -27 -31 -45
-15 -33 -15 -33 33 -96 57 -75 288 -310 423 -430 52 -46 130 -118 173 -159 43
-41 80 -77 83 -80 8 -7 124 137 124 155 0 3 9 15 20 27 11 12 20 29 20 37 0 9
11 28 25 43 14 15 25 34 25 42 0 8 3 16 8 18 4 2 25 39 47 83 22 44 43 82 48
83 4 2 7 12 7 22 0 10 5 22 10 25 6 4 8 10 6 14 -3 4 4 22 15 39 10 18 19 39
19 47 0 8 8 29 19 48 10 18 22 49 26 68 7 36 23 90 35 124 8 20 16 53 40 150
7 28 15 96 18 153 2 56 9 105 13 108 12 7 12 91 0 98 -4 3 -11 61 -15 128 -6
119 -24 229 -39 244 -4 4 -7 17 -7 28 0 21 -19 82 -32 101 -3 6 -9 27 -13 48
-4 20 -11 40 -16 43 -5 3 -9 14 -9 25 0 10 -4 19 -10 19 -5 0 -10 5 -10 12 0
19 -53 128 -62 128 -4 0 -8 9 -8 19 0 11 -3 21 -8 23 -4 2 -26 33 -50 69 -24
37 -52 75 -62 84 -11 10 -20 22 -20 28 0 12 -205 217 -217 217 -5 0 -20 11
-33 25 -13 14 -29 25 -35 25 -7 0 -20 9 -30 20 -10 11 -24 20 -32 20 -7 0 -13
4 -13 9 0 5 -8 11 -17 15 -10 3 -31 14 -48 25 -16 11 -38 20 -47 20 -10 1 -18
4 -18 9 0 7 -22 17 -105 49 -22 8 -48 19 -57 24 -10 5 -27 9 -38 9 -11 0 -20
4 -20 9 0 5 -12 11 -27 14 -16 3 -80 15 -143 27 -63 12 -146 23 -183 25 -37 1
-71 5 -74 9 -9 8 -198 8 -207 -1z"/>
<path d="M2467 6935 c-22 -44 -43 -87 -47 -96 -11 -20 -24 -88 -22 -111 0 -10
-3 -18 -9 -18 -5 0 -9 -18 -9 -39 0 -22 -4 -43 -10 -46 -5 -3 -10 -37 -10 -75
0 -38 -4 -72 -10 -75 -6 -4 -10 -62 -10 -140 0 -78 4 -136 10 -140 6 -3 10
-35 10 -70 0 -35 5 -67 10 -70 6 -3 10 -18 11 -33 1 -37 28 -80 64 -100 17 -9
32 -19 35 -23 3 -3 22 -18 44 -34 50 -38 176 -162 176 -174 0 -5 7 -15 16 -22
36 -30 108 -158 131 -232 22 -73 -1 -79 -34 -9 -14 31 -192 222 -207 222 -2 0
-37 23 -78 51 -40 28 -82 55 -93 60 -11 5 -29 15 -40 21 -73 47 -105 65 -140
83 -22 11 -46 25 -53 32 -7 7 -42 26 -77 44 -36 17 -65 36 -65 40 0 5 -7 9
-15 9 -8 0 -15 4 -15 9 0 5 -11 12 -25 15 -14 4 -25 11 -25 16 0 6 -6 10 -13
10 -7 0 -22 8 -33 18 -10 9 -39 31 -64 47 -131 88 -280 249 -329 357 -11 26
-25 49 -30 52 -30 19 -30 -387 0 -418 5 -6 9 -20 9 -33 0 -13 5 -23 10 -23 6
0 10 -6 10 -13 0 -13 19 -59 41 -99 15 -29 10 -48 -11 -48 -11 0 -20 5 -20 10
0 6 -14 10 -30 10 -17 0 -38 4 -48 9 -27 14 -208 32 -379 36 -127 4 -153 2
-130 -7 15 -7 27 -15 27 -20 0 -4 6 -8 13 -8 7 0 19 -9 27 -20 8 -11 19 -20
25 -20 10 0 181 -171 215 -215 9 -11 23 -38 33 -60 10 -22 22 -48 27 -57 6
-10 10 -38 10 -62 0 -38 -6 -51 -46 -95 -25 -28 -51 -51 -58 -51 -6 0 -18 -9
-26 -20 -8 -11 -22 -20 -32 -20 -10 0 -18 -4 -18 -9 0 -5 -11 -12 -25 -15 -14
-4 -25 -11 -25 -16 0 -6 -9 -10 -20 -10 -11 0 -20 -4 -20 -10 0 -5 -6 -10 -14
-10 -8 0 -16 -3 -18 -7 -1 -5 -30 -21 -63 -38 -33 -16 -62 -32 -65 -35 -3 -3
-41 -23 -85 -45 -44 -22 -82 -43 -85 -46 -7 -10 -112 -69 -132 -76 -10 -3 -18
-9 -18 -14 0 -5 -5 -9 -11 -9 -12 0 -69 -41 -114 -82 -16 -16 -34 -28 -39 -28
-5 0 -22 -14 -39 -32 -22 -23 -25 -29 -11 -24 10 4 43 10 72 13 28 3 52 9 52
13 0 11 329 10 335 -1 4 -5 15 -9 26 -9 10 0 27 -4 37 -9 9 -5 39 -19 65 -32
50 -24 127 -94 127 -116 0 -7 5 -13 10 -13 6 0 10 -11 10 -25 0 -14 5 -25 10
-25 6 0 10 -15 10 -32 0 -18 4 -38 8 -45 10 -16 -7 -245 -19 -257 -5 -6 -9
-25 -9 -43 0 -18 -4 -33 -10 -33 -5 0 -10 -10 -10 -23 0 -13 -5 -28 -11 -34
-6 -6 -9 -19 -7 -28 2 -14 10 -10 38 20 31 32 104 92 166 135 12 8 50 35 85
60 72 51 135 91 197 122 23 12 42 26 42 30 0 4 9 8 20 8 11 0 20 3 20 8 0 8
73 42 90 42 6 0 10 5 10 10 0 6 9 10 20 10 11 0 20 5 20 10 0 6 7 10 15 10 8
0 23 4 33 9 43 23 92 41 110 41 12 0 24 5 27 10 3 6 17 10 31 10 13 0 24 5 24
10 0 6 18 10 40 10 22 0 40 4 40 9 0 9 -106 31 -146 31 -11 0 -24 4 -29 9 -6
5 -44 12 -85 15 -85 6 -130 15 -130 26 0 11 87 90 99 90 6 0 11 4 11 9 0 10
142 103 188 122 17 8 32 17 32 21 0 5 6 8 13 8 8 0 27 7 44 15 16 8 38 16 49
18 24 5 54 16 76 28 10 5 29 9 42 9 14 0 28 5 31 10 3 6 21 10 40 10 19 0 36
4 40 9 3 6 13 10 23 9 9 0 80 8 156 17 76 9 157 14 180 11 23 -3 74 -7 114
-10 41 -2 76 -7 79 -10 12 -12 -6 -18 -51 -18 -25 0 -48 -4 -52 -9 -3 -5 -32
-9 -65 -9 -32 0 -59 -4 -59 -9 0 -5 -17 -11 -37 -14 -21 -3 -56 -10 -78 -16
-22 -5 -63 -16 -92 -23 -28 -7 -55 -16 -59 -21 -4 -4 -18 -7 -31 -7 -12 0 -23
-4 -23 -10 0 -5 -7 -10 -16 -10 -16 0 -125 -49 -134 -60 -3 -3 -22 -14 -42
-23 -46 -22 -49 -36 -8 -33 17 1 30 -1 30 -6 0 -4 16 -8 35 -8 19 0 35 -4 35
-10 0 -5 15 -10 34 -10 19 0 38 -4 41 -10 3 -5 19 -10 35 -10 16 0 32 -5 35
-10 4 -6 12 -10 18 -9 7 2 32 -3 55 -10 42 -12 43 -13 27 -31 -9 -10 -44 -32
-78 -48 -76 -37 -109 -63 -212 -168 -79 -81 -111 -116 -130 -146 -5 -8 -22
-34 -37 -56 -16 -23 -28 -46 -28 -52 0 -5 -4 -10 -10 -10 -5 0 -10 -9 -10 -20
0 -11 -4 -20 -10 -20 -5 0 -10 -10 -10 -21 0 -20 1 -21 25 -5 13 9 31 16 40
16 8 0 15 5 15 10 0 6 9 10 19 10 11 0 23 5 26 10 3 6 19 10 34 10 15 0 32 5
38 11 27 27 371 7 389 -23 3 -4 14 -8 24 -8 10 0 20 -3 22 -7 2 -5 19 -16 38
-25 69 -35 133 -91 145 -128 4 -11 10 -20 14 -20 4 0 13 -16 21 -35 8 -19 17
-35 22 -35 4 0 8 -15 8 -34 0 -19 5 -38 10 -41 12 -7 14 -185 2 -185 -5 0 -9
-15 -10 -32 0 -18 -6 -34 -11 -36 -6 -2 -11 -12 -11 -23 0 -11 -4 -27 -10 -37
-5 -9 -17 -34 -26 -54 -9 -21 -20 -38 -25 -38 -5 0 -9 -5 -9 -12 0 -6 -25 -36
-55 -65 l-55 -53 55 0 c29 0 57 5 60 10 3 6 33 10 65 10 32 0 62 5 65 10 3 6
16 10 29 10 12 0 27 5 33 11 8 8 13 8 17 0 8 -12 -34 -111 -46 -111 -5 0 -8
-6 -8 -13 0 -15 -125 -147 -139 -147 -6 0 -11 -3 -11 -8 0 -4 -14 -13 -31 -21
-16 -7 -28 -16 -25 -19 8 -7 159 19 170 29 6 5 23 9 38 9 16 0 36 4 46 9 42
21 94 41 107 41 8 0 15 5 15 10 0 6 9 10 20 10 11 0 20 5 20 10 0 6 7 10 17
10 9 0 31 11 49 25 18 14 35 25 38 25 7 0 45 30 65 53 8 9 19 17 24 17 12 0
107 103 107 116 0 3 9 18 19 33 l20 27 -84 -4 c-88 -5 -136 8 -165 43 -21 26
-28 92 -18 173 5 42 11 86 12 97 0 11 4 25 7 30 9 15 20 65 14 65 -3 0 -27
-12 -55 -27 -42 -24 -52 -26 -69 -15 -12 6 -27 12 -35 12 -22 0 -46 63 -46
119 0 73 31 222 52 245 4 6 8 18 8 27 0 10 3 19 8 21 12 5 39 63 34 76 -2 6
-18 12 -36 12 -18 0 -36 4 -41 9 -12 11 -138 25 -262 29 -35 1 -63 5 -63 10 0
10 50 32 71 32 10 0 21 5 24 10 3 6 23 10 44 10 20 0 41 4 46 9 6 5 30 11 55
14 25 3 61 7 80 10 35 5 193 23 240 26 107 9 280 11 280 3 0 -5 22 -9 49 -10
70 -1 126 -19 158 -48 25 -23 28 -33 28 -87 0 -63 -21 -147 -37 -147 -4 0 -8
-6 -8 -14 0 -17 -31 -78 -45 -88 -5 -4 50 -8 123 -8 81 0 132 -4 132 -10 0 -5
20 -10 45 -10 25 0 53 -4 63 -9 9 -5 45 -17 80 -27 34 -11 62 -22 62 -26 0 -5
4 -8 10 -8 21 0 100 -75 100 -95 0 -8 5 -15 10 -15 6 0 10 -9 10 -20 0 -11 5
-20 10 -20 6 0 10 -18 10 -39 0 -22 5 -43 10 -46 6 -3 10 -28 10 -55 0 -27 -4
-52 -10 -55 -12 -7 -14 -65 -2 -65 4 0 25 16 47 35 22 19 43 35 47 35 11 0 91
84 118 123 14 20 28 37 33 37 4 0 7 4 7 10 0 8 36 68 58 95 13 16 64 130 66
147 1 3 4 10 9 14 4 4 7 18 7 31 0 13 5 23 10 23 6 0 10 15 10 33 0 19 3 37 7
41 4 4 9 19 10 34 2 15 8 60 13 100 20 150 8 237 -24 171 -9 -19 -29 -48 -45
-65 -36 -40 -120 -104 -137 -104 -7 0 -14 -4 -16 -8 -1 -5 -15 -12 -30 -16
-27 -6 -28 -5 -28 32 0 70 -63 156 -137 188 l-41 18 0 125 c1 108 -3 139 -26
216 -14 50 -31 98 -36 107 -6 10 -10 25 -10 33 0 8 -3 15 -7 15 -5 0 -21 29
-38 65 -16 35 -33 65 -37 65 -5 0 -8 7 -8 15 0 8 -4 15 -8 15 -5 0 -18 17 -30
38 -12 20 -37 55 -56 77 -134 155 -197 217 -427 425 -102 92 -359 348 -359
357 0 5 -11 17 -25 27 -14 10 -25 23 -25 29 0 5 -8 17 -17 26 -28 26 -143 200
-143 216 0 8 -4 15 -10 15 -5 0 -10 9 -10 20 0 11 -4 20 -8 20 -5 0 -17 26
-27 58 -11 31 -23 61 -27 67 -4 5 -8 22 -8 37 0 15 -4 28 -10 28 -6 0 -10 27
-10 60 0 38 -4 60 -11 60 -8 0 -10 15 -7 45 6 53 -8 61 -18 10 -3 -19 -10 -38
-15 -41 -5 -3 -9 -16 -9 -29 0 -13 -4 -25 -8 -27 -4 -1 -16 -35 -25 -74 -21
-87 -20 -395 1 -416 6 -6 12 -19 12 -28 0 -14 291 -310 306 -310 3 0 44 -37
91 -82 46 -46 93 -87 103 -92 11 -5 20 -13 20 -18 0 -13 26 -38 39 -38 6 0 11
-5 11 -10 0 -6 41 -53 90 -104 50 -51 90 -98 90 -104 0 -5 12 -21 28 -34 15
-13 36 -42 47 -63 11 -22 28 -48 37 -59 16 -18 29 -42 59 -113 8 -18 17 -33
21 -33 5 0 8 -9 8 -19 0 -11 4 -21 9 -23 4 -1 11 -21 15 -43 l8 -40 -21 22
c-12 12 -21 29 -21 38 0 8 -4 15 -8 15 -5 0 -15 12 -23 28 -19 38 -82 123
-108 146 -11 11 -21 23 -21 28 0 11 -179 188 -290 288 -47 41 -104 94 -127
118 -24 23 -46 42 -51 42 -4 0 -15 8 -23 18 -39 42 -167 162 -175 162 -8 0
-48 42 -223 231 -34 36 -61 70 -61 75 0 5 -15 25 -33 44 -17 19 -39 49 -47 65
-8 17 -22 36 -31 42 -9 7 -20 24 -23 38 -4 14 -11 25 -16 25 -6 0 -10 9 -10
20 0 11 -4 20 -10 20 -5 0 -10 11 -10 25 0 14 -4 25 -8 25 -4 0 -16 26 -26 58
-10 31 -22 65 -27 74 -5 10 -9 30 -9 46 0 15 -4 32 -10 38 -5 5 -10 52 -12
104 l-3 95 -38 -80z m1148 -1868 c37 -26 155 -144 155 -155 0 -5 8 -17 18 -28
22 -24 72 -126 72 -147 0 -20 -17 -21 -92 -3 -69 16 -157 67 -184 107 -10 16
-22 29 -26 29 -5 0 -8 7 -8 15 0 8 -3 15 -8 15 -9 0 -42 74 -42 94 0 8 -4 18
-10 21 -5 3 -10 15 -10 26 0 10 -4 19 -10 19 -5 0 -10 10 -10 23 0 13 -5 28
-11 34 -7 7 -9 19 -6 27 5 13 17 10 74 -20 37 -20 82 -46 98 -57z"/>
<path d="M7045 5620 c-3 -5 -14 -10 -23 -10 -26 0 -132 -34 -132 -42 0 -4 -9
-8 -20 -8 -11 0 -20 -4 -20 -10 0 -5 -9 -10 -20 -10 -11 0 -20 -3 -20 -7 0 -5
-20 -16 -45 -26 -25 -11 -45 -23 -45 -28 0 -5 -6 -9 -13 -9 -8 0 -22 -9 -32
-20 -10 -11 -23 -20 -29 -20 -6 0 -23 -11 -38 -25 -15 -14 -30 -25 -33 -25 -3
0 -18 -11 -33 -25 -15 -14 -30 -25 -33 -25 -4 0 -29 -20 -55 -45 -27 -25 -52
-45 -56 -45 -3 0 -26 -20 -50 -45 -24 -24 -48 -45 -54 -45 -6 0 -20 -10 -32
-23 -12 -13 -38 -29 -57 -37 -19 -8 -35 -17 -35 -22 0 -4 -9 -8 -19 -8 -11 0
-23 -4 -26 -10 -11 -18 -37 -10 -67 20 -23 25 -27 34 -18 50 5 10 10 28 10 39
0 12 5 21 10 21 6 0 10 6 10 14 0 18 63 124 90 154 24 25 25 32 5 32 -8 0 -15
-4 -15 -8 0 -4 -15 -16 -32 -27 -18 -10 -38 -24 -44 -29 -6 -6 -27 -22 -47
-36 -20 -14 -37 -28 -37 -32 0 -5 -6 -8 -12 -8 -14 0 -308 -291 -308 -304 0
-4 -16 -24 -35 -44 -19 -20 -35 -42 -35 -49 0 -6 -3 -13 -8 -15 -4 -1 -25 -25
-47 -53 -22 -27 -43 -51 -47 -53 -5 -2 -8 -12 -8 -23 0 -10 -4 -19 -8 -19 -5
0 -17 -17 -28 -37 -10 -21 -27 -46 -36 -57 -10 -11 -18 -24 -18 -29 0 -5 -8
-21 -19 -35 -10 -15 -22 -38 -26 -52 -4 -14 -10 -27 -14 -30 -12 -10 -31 -50
-31 -65 0 -8 -4 -15 -9 -15 -5 0 -12 -18 -16 -40 -4 -22 -11 -40 -16 -40 -5 0
-9 -11 -9 -25 0 -14 -4 -25 -10 -25 -5 0 -10 -12 -10 -27 l0 -28 18 26 c25 38
198 209 210 209 6 0 15 6 19 13 12 19 150 127 162 127 6 0 11 4 11 8 0 5 16
17 35 28 19 10 35 22 35 26 0 5 7 8 15 8 8 0 15 4 15 8 0 5 25 22 55 37 30 16
55 33 55 37 0 4 9 8 19 8 11 0 21 3 23 8 2 4 39 25 83 47 44 22 82 43 83 47 2
5 12 8 23 8 10 0 19 4 19 10 0 5 16 12 35 16 19 3 38 10 41 15 3 5 14 9 25 9
10 0 19 5 19 10 0 6 11 10 25 10 14 0 25 4 25 8 0 4 28 15 63 25 34 10 70 22
79 27 10 6 27 10 38 10 11 0 28 4 38 9 38 19 149 42 219 46 6 0 15 4 19 8 11
11 374 9 374 -3 0 -11 -45 -24 -57 -17 -5 3 -42 1 -83 -4 -41 -5 -88 -10 -103
-11 -15 -1 -30 -5 -33 -10 -3 -4 -21 -8 -40 -8 -19 0 -34 -4 -34 -10 0 -5 -15
-10 -34 -10 -19 0 -37 -4 -40 -9 -4 -5 -29 -12 -56 -16 -27 -4 -52 -11 -56
-16 -3 -5 -14 -9 -25 -9 -10 0 -19 -4 -19 -10 0 -5 -11 -10 -25 -10 -14 0 -25
-4 -25 -10 0 -5 -9 -10 -19 -10 -11 0 -22 -4 -25 -9 -3 -5 -22 -12 -41 -15
-19 -4 -35 -11 -35 -16 0 -6 -9 -10 -20 -10 -11 0 -20 -4 -20 -10 0 -5 -7 -10
-16 -10 -9 0 -28 -9 -43 -19 -15 -11 -39 -23 -54 -26 -15 -4 -27 -11 -27 -16
0 -5 -9 -9 -20 -9 -11 0 -20 -4 -20 -10 0 -5 -6 -10 -13 -10 -8 0 -22 -9 -32
-20 -9 -10 -20 -18 -24 -17 -9 3 -71 -36 -71 -45 0 -4 -8 -8 -19 -8 -10 0 -24
-7 -31 -15 -7 -8 -17 -15 -23 -15 -5 0 -17 -8 -26 -18 -9 -10 -29 -27 -46 -38
-33 -21 -51 -35 -100 -76 -18 -16 -36 -28 -40 -28 -4 0 -29 -19 -56 -42 -26
-24 -60 -54 -77 -68 -118 -100 -352 -326 -352 -340 0 -3 -31 -38 -70 -78 -38
-39 -70 -76 -70 -82 0 -5 -20 -28 -45 -51 -25 -23 -45 -47 -45 -53 0 -7 -16
-27 -35 -46 -19 -19 -35 -38 -35 -43 0 -5 -18 -29 -40 -54 -48 -55 -50 -72
-10 -80 17 -3 33 -10 36 -14 3 -5 14 -9 25 -9 10 0 19 -4 19 -10 0 -5 6 -10
13 -10 7 0 23 -9 35 -20 12 -11 25 -20 30 -20 5 0 27 -17 49 -37 23 -21 64
-56 93 -78 64 -49 141 -114 198 -166 47 -43 72 -50 72 -19 0 11 5 20 10 20 6
0 10 9 10 20 0 11 5 20 10 20 6 0 10 6 10 13 0 12 139 297 149 307 3 3 23 39
45 80 21 41 41 77 45 80 10 8 41 63 52 93 6 15 15 27 20 27 5 0 9 7 9 15 0 8
5 15 10 15 6 0 10 7 10 15 0 8 4 15 9 15 5 0 11 8 15 18 8 23 46 85 74 119 12
15 22 31 22 36 0 6 8 17 18 26 9 9 22 23 27 32 52 83 79 119 138 184 20 23 37
46 37 50 0 12 234 245 246 245 6 0 18 8 27 18 8 9 42 31 74 47 32 17 60 33 61
38 2 4 12 7 23 7 10 0 19 5 19 10 0 6 11 10 24 10 14 0 27 4 30 9 3 5 23 12
43 16 21 4 43 10 48 15 10 8 28 11 155 31 82 12 307 7 355 -9 17 -5 50 -15 75
-22 25 -7 59 -19 77 -26 17 -8 36 -14 42 -14 6 0 11 -4 11 -10 0 -5 9 -10 20
-10 11 0 20 -4 20 -10 0 -5 5 -10 11 -10 6 0 22 -9 36 -20 l26 -20 14 20 c8
11 19 20 24 20 5 0 19 9 31 20 11 10 37 26 57 35 20 9 44 20 53 25 10 6 27 10
38 10 11 0 20 5 20 10 0 6 7 10 15 10 8 0 24 5 35 10 11 6 28 14 39 19 10 5
39 12 65 16 25 4 49 11 52 16 3 5 18 9 34 9 16 0 32 5 35 10 3 6 21 10 39 10
17 0 36 4 42 10 5 5 45 13 87 16 43 4 80 11 83 15 3 5 43 9 89 9 46 0 87 5 90
10 3 6 50 10 105 10 55 0 102 -4 105 -10 3 -5 26 -10 50 -10 24 0 56 -5 71
-10 60 -23 36 8 -86 110 -36 30 -66 58 -68 63 -2 4 -9 7 -16 7 -7 0 -23 12
-37 26 -13 14 -33 30 -44 35 -26 12 -54 30 -77 50 -10 9 -36 25 -58 35 -22 10
-40 22 -40 27 0 4 -9 7 -20 7 -11 0 -20 5 -20 10 0 6 -5 10 -10 10 -6 0 -33
11 -62 25 -28 14 -58 25 -65 25 -7 0 -13 3 -13 8 0 9 -39 26 -115 47 -33 9
-69 21 -80 25 -25 10 -92 29 -125 35 -14 3 -45 9 -70 14 -56 12 -480 9 -500
-4 -8 -5 -28 -10 -44 -12 -17 -2 -33 -8 -37 -14 -5 -8 -9 -8 -14 1 -4 7 -10 8
-14 3 -3 -5 -33 -17 -66 -27 -33 -10 -76 -23 -95 -28 -38 -12 -59 -19 -103
-37 -15 -6 -49 -11 -75 -11 -84 0 -108 64 -53 143 33 47 45 58 116 107 28 18
52 36 55 40 3 3 28 16 55 28 l50 21 -47 1 c-26 0 -50 -4 -53 -10z"/>
<path d="M842 4496 c-51 -52 -92 -98 -92 -101 0 -4 -24 -31 -52 -62 -29 -30
-57 -62 -62 -70 -5 -9 -22 -29 -37 -46 -16 -16 -29 -33 -29 -38 0 -4 -6 -14
-13 -21 -7 -7 -41 -51 -75 -98 -35 -47 -70 -93 -78 -103 -8 -9 -14 -20 -14
-23 0 -3 -11 -20 -25 -38 -14 -18 -25 -38 -25 -44 0 -7 -3 -12 -8 -12 -4 0
-16 -17 -27 -37 -11 -21 -28 -47 -37 -57 -10 -11 -18 -26 -18 -33 0 -7 -3 -13
-7 -13 -5 0 -21 -29 -38 -65 -16 -36 -33 -65 -37 -65 -5 0 -8 -7 -8 -15 0 -8
-4 -15 -10 -15 -5 0 -12 -16 -16 -35 -3 -19 -10 -35 -15 -35 -5 0 -9 -9 -9
-20 0 -11 -4 -20 -10 -20 -5 0 -10 -9 -10 -20 0 -11 -4 -20 -10 -20 -5 0 -10
-9 -10 -19 0 -11 -4 -22 -9 -25 -5 -3 -12 -21 -15 -40 -4 -20 -13 -48 -21 -63
-17 -33 -11 -42 13 -20 10 10 22 17 26 17 5 0 20 12 35 28 15 15 34 32 44 37
9 6 51 34 92 63 42 28 79 52 83 52 4 0 18 9 32 20 30 23 60 26 60 5 0 -8 -4
-15 -9 -15 -5 0 -12 -13 -16 -30 -4 -16 -11 -32 -16 -35 -5 -4 -9 -17 -9 -31
0 -13 -4 -24 -10 -24 -5 0 -10 -7 -10 -15 0 -8 -4 -23 -9 -33 -15 -26 -41
-118 -41 -141 0 -12 -4 -21 -10 -21 -5 0 -10 -13 -10 -29 0 -17 -4 -33 -10
-36 -5 -3 -10 -24 -10 -46 0 -21 -4 -39 -9 -39 -5 0 -11 -21 -14 -47 -3 -27
-7 -61 -10 -78 -32 -208 -33 -579 -3 -760 9 -49 16 -107 16 -127 0 -20 5 -40
10 -43 6 -3 10 -24 10 -45 0 -21 5 -42 10 -45 6 -3 10 -19 10 -36 0 -16 4 -37
9 -47 12 -24 29 -80 37 -125 3 -20 10 -40 15 -43 5 -3 9 -16 9 -29 0 -13 5
-27 10 -30 6 -3 10 -14 10 -24 0 -9 11 -41 25 -69 14 -29 25 -59 25 -67 0 -8
5 -15 10 -15 6 0 10 -6 10 -13 0 -7 11 -37 25 -65 14 -29 25 -56 25 -62 0 -5
5 -10 10 -10 6 0 10 -9 10 -20 0 -11 5 -20 10 -20 6 0 10 -7 10 -15 0 -8 3
-15 8 -15 4 0 16 -18 26 -40 10 -22 27 -48 37 -59 11 -11 19 -24 19 -28 0 -5
11 -20 25 -35 14 -15 25 -31 25 -35 0 -4 38 -48 85 -96 72 -75 85 -85 85 -65
0 13 -4 28 -10 34 -5 5 -11 76 -13 157 -4 137 -3 147 15 147 10 0 18 -5 18
-10 0 -15 70 -119 103 -154 15 -16 27 -32 27 -36 0 -8 145 -152 184 -182 16
-13 47 -40 70 -60 22 -21 46 -38 53 -38 6 0 13 -3 15 -7 4 -11 67 -55 101 -72
15 -8 27 -18 27 -23 0 -4 7 -8 15 -8 8 0 15 -3 15 -7 0 -5 19 -17 43 -28 23
-11 44 -22 47 -25 9 -10 116 -60 128 -60 7 0 12 -4 12 -10 0 -5 9 -10 19 -10
11 0 23 -5 26 -10 3 -6 15 -10 25 -10 10 0 20 -3 22 -7 4 -10 98 -43 121 -43
9 0 17 -4 17 -10 0 -5 11 -10 25 -10 14 0 25 -4 25 -10 0 -5 14 -10 30 -10 17
0 38 -4 48 -9 22 -11 185 -41 237 -44 22 -1 43 -6 46 -10 7 -10 497 -10 512 0
6 4 36 8 68 10 31 1 86 9 120 18 35 8 78 15 96 15 17 0 35 4 38 10 3 5 22 10
41 10 19 0 34 5 34 10 0 6 13 10 29 10 17 0 32 4 35 9 4 5 24 12 46 16 22 4
42 11 46 16 3 5 16 9 30 9 13 0 24 5 24 10 0 6 8 10 18 10 10 0 22 4 28 8 5 5
25 15 44 22 45 16 143 62 150 70 3 3 31 18 63 34 31 16 57 32 57 37 0 5 7 9
15 9 9 0 21 4 28 10 57 47 76 60 86 60 6 0 11 4 11 8 0 4 15 16 33 27 17 10
39 26 47 35 8 9 21 19 27 21 28 9 323 285 323 301 0 5 12 21 28 36 15 15 41
45 57 66 17 22 39 50 50 62 34 38 45 53 45 63 0 5 3 11 8 13 12 5 82 96 82
106 0 6 3 12 8 14 10 4 62 85 62 97 0 5 4 11 9 13 10 3 40 51 68 108 10 19 23
41 30 47 6 7 26 43 45 80 18 38 36 70 41 71 4 2 7 10 7 18 0 8 5 14 10 14 6 0
10 5 10 11 0 15 32 83 42 90 5 3 -13 25 -40 50 -109 100 -141 128 -155 136 -9
4 -35 26 -59 49 -24 22 -53 46 -65 52 -12 7 -41 32 -65 57 -23 24 -48 45 -53
45 -6 0 -31 20 -55 45 -24 25 -48 45 -53 45 -4 0 -18 9 -30 21 -12 11 -40 35
-61 52 -22 18 -53 44 -69 60 -34 32 -47 34 -47 7 0 -11 -4 -20 -9 -20 -5 0
-11 -8 -14 -17 -6 -18 -45 -88 -60 -108 -11 -14 -85 -115 -105 -144 -88 -123
-314 -354 -444 -453 -46 -34 -84 -66 -86 -70 -2 -5 -10 -8 -18 -8 -8 0 -14 -3
-14 -8 0 -4 -20 -16 -45 -27 -25 -11 -45 -23 -45 -26 0 -3 -16 -11 -35 -19
-19 -8 -35 -17 -35 -22 0 -4 -9 -8 -19 -8 -11 0 -22 -4 -26 -9 -3 -5 -19 -12
-35 -16 -17 -4 -30 -11 -30 -16 0 -5 -18 -9 -40 -9 -22 0 -40 -4 -40 -8 0 -16
-129 -36 -235 -37 -116 0 -211 8 -222 19 -3 3 -17 6 -29 6 -13 0 -26 5 -29 10
-3 6 -15 10 -26 10 -10 0 -27 4 -37 9 -16 9 -43 19 -60 22 -4 1 -19 10 -34 20
-14 10 -33 19 -42 19 -9 0 -16 4 -16 8 0 5 -16 17 -35 28 -19 10 -35 22 -35
26 0 5 -6 8 -13 8 -15 0 -146 127 -186 180 -14 19 -28 37 -31 40 -13 13 -60
91 -60 100 0 5 -4 10 -10 10 -5 0 -10 5 -10 12 0 10 -36 93 -61 140 -5 10 -9
27 -9 38 0 11 -4 20 -10 20 -5 0 -10 11 -10 24 0 14 -4 27 -9 31 -6 3 -10 13
-9 23 0 43 -16 153 -23 158 -12 7 -12 371 0 378 4 3 12 46 15 96 4 49 12 92
17 95 5 4 9 17 9 30 0 13 5 27 10 30 6 3 10 17 10 31 0 13 5 33 10 44 5 11 14
28 19 39 5 10 13 35 16 55 4 20 11 39 16 42 5 3 9 14 9 25 0 10 5 19 10 19 6
0 10 9 10 20 0 11 5 20 10 20 6 0 10 5 10 12 0 18 33 88 42 88 4 0 8 9 8 19 0
11 3 21 8 23 9 4 51 76 59 101 3 9 9 17 14 17 5 0 9 7 9 15 0 8 4 15 8 15 4 0
16 15 27 33 10 17 21 34 25 37 3 3 17 21 30 40 13 19 27 37 30 40 3 3 21 25
41 50 20 25 58 68 85 96 119 125 117 122 95 133 -11 6 -31 11 -45 11 -14 0
-28 5 -31 10 -8 12 -182 13 -189 1 -3 -4 -29 -11 -57 -15 -28 -4 -58 -11 -67
-15 -10 -5 -35 -17 -57 -28 -72 -36 -110 -58 -113 -65 -2 -5 -8 -8 -13 -8 -10
0 -36 -22 -108 -87 -25 -23 -52 -43 -58 -43 -16 0 -18 86 -3 95 6 3 10 30 10
59 0 29 3 56 7 59 3 4 8 17 9 30 6 60 18 107 25 107 5 0 9 11 9 25 0 14 5 25
10 25 6 0 10 7 10 15 0 18 49 122 70 148 8 10 23 28 33 39 9 12 15 23 13 25
-4 5 -48 -18 -56 -28 -3 -4 -24 -12 -46 -18 -23 -6 -47 -18 -54 -26 -7 -8 -21
-15 -31 -15 -11 0 -19 -4 -19 -9 0 -5 -8 -11 -17 -14 -10 -3 -40 -19 -68 -35
-27 -16 -72 -42 -99 -57 -28 -15 -58 -36 -68 -45 -11 -10 -35 -26 -55 -36 -35
-18 -59 -35 -87 -59 -6 -6 -34 -25 -62 -43 -28 -18 -64 -44 -80 -57 -16 -14
-32 -25 -36 -25 -4 0 -18 -11 -32 -25 -14 -14 -28 -25 -31 -25 -9 0 -115 -99
-186 -174 -32 -32 -61 -56 -66 -53 -6 4 -8 28 -6 54 1 26 6 89 9 138 3 50 10
94 15 99 5 6 9 32 9 58 0 26 4 48 9 48 5 0 11 21 14 48 3 26 10 72 17 102 6
30 11 72 11 92 0 21 4 40 10 43 11 8 12 112 0 119 -4 3 -11 19 -14 36 -4 16
-13 30 -20 30 -7 0 -55 -42 -105 -94z"/>
<path d="M3381 4273 c0 -17 -5 -35 -11 -38 -5 -3 -10 -39 -10 -80 0 -41 5 -77
10 -80 6 -3 10 -17 10 -31 0 -25 2 -31 35 -94 19 -35 125 -150 139 -150 4 0
17 -9 29 -21 12 -12 38 -33 57 -48 19 -14 40 -30 46 -36 6 -5 26 -21 45 -34
39 -26 129 -142 129 -165 0 -8 4 -17 9 -20 11 -7 19 -63 27 -181 3 -49 10 -92
15 -93 5 -2 7 -7 5 -11 -6 -9 11 -88 25 -121 31 -71 80 -152 113 -191 17 -19
47 -54 66 -77 19 -23 40 -42 45 -42 6 0 31 -20 57 -45 27 -25 52 -45 56 -45 5
0 19 -11 32 -25 13 -14 27 -25 32 -25 4 0 29 -20 56 -45 26 -25 50 -45 54 -45
5 0 25 -16 45 -35 20 -19 41 -35 45 -35 5 0 28 -20 52 -45 25 -25 47 -45 51
-45 5 0 54 -42 91 -78 7 -6 15 -12 19 -12 3 0 22 -15 41 -32 44 -40 70 -63
124 -108 24 -19 55 -47 70 -62 16 -16 31 -28 35 -28 9 0 67 -61 100 -105 16
-22 32 -42 35 -45 7 -6 61 -118 70 -145 44 -127 49 -193 36 -500 -4 -93 -9
-172 -11 -175 -8 -12 15 -203 31 -258 8 -31 18 -68 21 -82 3 -14 9 -27 12 -30
3 -3 19 -32 36 -65 16 -33 32 -62 35 -65 3 -3 18 -23 35 -45 36 -49 85 -98
151 -150 27 -22 55 -46 63 -54 8 -7 44 -27 80 -44 36 -17 68 -35 69 -39 2 -4
15 -8 28 -8 13 0 24 -4 24 -10 0 -5 5 -10 10 -10 6 0 -3 17 -20 39 -36 44
-100 167 -100 191 0 9 -6 22 -12 28 -9 9 -13 59 -13 170 0 151 2 164 35 247
33 82 69 143 112 188 32 34 40 25 45 -47 1 -28 7 -67 13 -86 43 -154 64 -220
72 -220 4 0 8 -9 8 -19 0 -11 4 -22 8 -25 5 -3 25 -38 46 -79 20 -41 45 -83
55 -93 10 -11 20 -25 22 -31 18 -48 225 -252 265 -261 8 -2 14 -7 14 -11 0 -4
18 -16 40 -27 22 -10 40 -22 40 -26 0 -5 7 -8 15 -8 8 0 15 -4 15 -10 0 -5 7
-10 15 -10 8 0 31 -7 52 -16 21 -9 48 -21 61 -25 12 -5 32 -13 45 -18 12 -5
33 -12 47 -15 14 -2 43 -9 65 -15 106 -28 523 -21 580 10 6 3 23 6 39 7 17 1
32 6 35 10 3 4 19 9 35 10 16 1 34 6 40 11 6 4 22 11 36 13 30 7 153 51 160
58 3 3 32 19 65 35 33 17 62 33 63 38 2 4 10 7 18 7 8 0 14 5 14 10 0 6 5 10
11 10 31 0 251 192 236 206 -1 2 -21 -3 -42 -11 -22 -7 -50 -11 -61 -9 -12 3
-25 1 -28 -5 -9 -14 -163 -15 -171 -1 -4 6 -14 10 -23 9 -10 -2 -46 1 -82 6
-36 5 -68 9 -72 9 -3 1 -10 4 -14 9 -4 4 -18 7 -31 7 -12 0 -23 5 -23 10 0 6
-13 10 -30 10 -16 0 -30 5 -30 10 0 6 -5 10 -11 10 -13 0 -161 70 -169 80 -3
4 -20 15 -37 25 -42 24 -43 45 -3 45 17 0 30 -3 30 -7 0 -5 59 -8 130 -8 72 0
130 3 130 8 0 4 24 7 54 7 30 0 58 4 61 10 3 5 17 10 31 10 27 0 117 25 146
41 10 5 27 9 38 9 11 0 20 5 20 10 0 6 9 10 20 10 11 0 20 5 20 10 0 6 9 10
19 10 11 0 22 4 26 9 3 5 19 12 35 16 17 4 30 11 30 16 0 5 7 9 15 9 8 0 15 4
15 9 0 5 15 16 33 24 17 9 46 30 64 47 18 16 36 30 41 30 9 0 128 126 173 182
14 18 36 52 49 75 13 24 27 43 32 43 4 0 8 6 8 13 0 8 11 36 25 63 14 27 25
57 25 67 0 9 5 17 10 17 6 0 10 15 10 34 0 19 5 38 10 41 6 3 10 24 10 46 0
21 5 39 10 39 6 0 10 53 10 139 0 83 -4 142 -10 146 -5 3 -10 28 -10 56 0 27
-4 49 -10 49 -5 0 -10 11 -10 24 0 14 -4 28 -10 31 -5 3 -10 16 -10 27 0 26
-69 168 -81 168 -5 0 -9 6 -9 13 0 8 -11 27 -25 43 -14 16 -25 33 -25 38 0 12
-193 206 -205 206 -5 0 -24 12 -40 28 -17 15 -42 33 -55 41 -50 29 -179 91
-189 91 -6 0 -20 5 -31 10 -11 6 -29 15 -40 20 -11 6 -27 10 -35 10 -8 0 -23
4 -33 9 -29 15 -108 31 -179 36 -196 14 -244 15 -238 5 3 -5 15 -10 26 -10 11
0 40 -11 65 -25 25 -14 49 -25 54 -25 5 0 20 -10 33 -22 14 -13 48 -43 76 -68
28 -24 51 -48 51 -53 0 -4 11 -20 25 -35 14 -15 25 -32 25 -39 0 -7 5 -13 10
-13 6 0 10 -9 10 -20 0 -11 5 -20 10 -20 6 0 10 -8 10 -18 0 -10 4 -22 9 -28
5 -5 14 -44 20 -86 11 -80 0 -222 -20 -242 -5 -6 -9 -20 -9 -33 0 -13 -4 -23
-10 -23 -5 0 -10 -5 -10 -11 0 -21 -73 -114 -116 -149 -24 -19 -50 -41 -58
-48 -8 -6 -19 -12 -25 -12 -6 0 -11 -4 -11 -10 0 -5 -5 -10 -10 -10 -6 0 -28
-11 -50 -25 -22 -14 -48 -25 -59 -25 -11 0 -23 -4 -26 -10 -3 -5 -17 -10 -31
-10 -13 0 -24 -4 -24 -10 0 -5 -13 -10 -28 -10 -15 0 -32 -4 -37 -9 -19 -19
-316 -32 -400 -18 -21 4 -35 37 -15 37 15 0 80 61 80 75 0 6 10 21 23 33 13
12 29 38 37 57 8 19 17 35 21 35 4 0 10 18 14 40 4 22 11 42 16 46 5 3 9 23 9
45 0 21 5 39 10 39 6 0 10 52 10 135 0 83 -4 135 -10 135 -5 0 -10 20 -10 45
0 25 -5 45 -10 45 -6 0 -10 6 -9 13 4 20 -12 87 -22 93 -5 3 -9 14 -9 25 0 10
-4 19 -10 19 -5 0 -10 9 -10 20 0 11 -3 20 -7 20 -5 0 -17 19 -28 43 -18 40
-176 207 -196 207 -5 0 -9 -11 -9 -25 0 -14 3 -25 8 -25 8 0 5 -96 -4 -172 -4
-27 -11 -48 -15 -48 -5 0 -9 -11 -9 -24 0 -13 -3 -26 -7 -28 -5 -1 -17 -20
-27 -41 -17 -33 -70 -88 -133 -138 -12 -10 -35 -20 -52 -24 -17 -3 -33 -11
-36 -16 -4 -5 -21 -9 -40 -9 -19 0 -37 -4 -40 -10 -8 -12 -79 -13 -103 -1 -9
5 -39 14 -67 20 -61 15 -154 59 -177 84 -9 10 -20 18 -25 18 -9 -1 -56 37
-136 111 -29 26 -56 48 -61 48 -5 0 -18 10 -30 23 -11 13 -43 41 -71 63 -27
21 -52 41 -55 44 -3 3 -27 24 -55 45 -27 22 -57 48 -66 57 -9 10 -20 18 -25
18 -5 0 -33 22 -62 48 -29 26 -78 67 -108 92 -30 25 -75 64 -99 87 -23 23 -46
39 -49 35 -4 -3 -24 13 -45 36 -21 23 -40 39 -43 37 -2 -2 -28 18 -56 45 -29
28 -56 50 -60 50 -4 0 -19 11 -34 25 -15 14 -30 25 -33 25 -3 0 -23 11 -45 25
-22 14 -49 25 -60 25 -11 0 -20 5 -20 10 0 6 -13 10 -28 10 -15 0 -32 4 -37 9
-11 10 -109 21 -205 22 -77 1 -163 14 -202 32 -41 17 -88 114 -95 194 -3 35
-10 66 -14 69 -5 3 -9 21 -9 40 0 19 -4 34 -10 34 -5 0 -10 6 -10 13 0 45 -68
126 -121 146 -19 7 -42 17 -51 22 -10 5 -28 9 -41 9 -13 0 -27 3 -31 7 -3 4
-46 8 -94 10 -48 2 -118 10 -155 19 -68 15 -159 51 -165 66 -2 4 -9 8 -16 8
-35 0 -126 120 -126 167 0 10 -4 23 -9 29 -5 5 -11 18 -14 29 -3 13 -5 9 -6
-12z"/>
<path d="M6943 3 c70 -2 184 -2 255 0 70 1 12 3 -128 3 -140 0 -198 -2 -127
-3z"/>
</g>
</svg>
