<?xml version="1.0" standalone="no"?>
<!DOCTYPE svg PUBLIC "-//W3C//DTD SVG 20010904//EN"
 "http://www.w3.org/TR/2001/REC-SVG-20010904/DTD/svg10.dtd">
<svg version="1.0" xmlns="http://www.w3.org/2000/svg"
 width="563.000000pt" height="885.000000pt" viewBox="0 0 563.000000 885.000000"
 preserveAspectRatio="xMidYMid meet">

<g transform="translate(0.000000,885.000000) scale(0.100000,-0.100000)"
fill="#000000" stroke="none">
<path d="M3250 8318 c-3 -3 -43 -8 -90 -11 -206 -13 -423 -57 -578 -117 -42
-16 -99 -35 -127 -42 -27 -6 -57 -17 -65 -24 -8 -6 -55 -33 -105 -59 -494
-260 -869 -687 -1040 -1186 -73 -211 -95 -358 -95 -626 0 -206 14 -285 91
-518 86 -257 252 -492 483 -680 50 -41 107 -87 126 -103 19 -16 61 -44 94 -63
32 -19 70 -42 85 -51 14 -10 44 -27 66 -39 223 -120 283 -164 286 -212 1 -12
2 -73 3 -134 2 -101 1 -113 -15 -113 -9 0 -30 -16 -46 -35 -15 -20 -46 -56
-68 -82 l-40 -46 1 -706 c1 -388 4 -785 7 -881 21 -569 21 -560 1 -560 -32 0
-117 45 -166 88 -26 22 -56 46 -66 54 -28 19 -53 73 -41 85 7 7 2 15 -15 26
-24 16 -24 19 -12 49 30 73 29 109 -5 181 -24 52 -32 84 -34 140 -2 39 -4 78
-4 84 -1 7 -17 19 -36 27 -45 19 -41 30 51 123 55 55 78 88 94 131 27 71 37
161 20 191 -11 21 -16 22 -68 16 -31 -3 -72 -13 -91 -21 -54 -22 -57 -3 -8 57
73 91 86 115 103 180 28 108 3 207 -57 228 -48 17 -80 13 -131 -14 -59 -31
-72 -31 -86 1 -10 20 -9 38 2 82 35 139 38 286 7 387 -33 106 -59 146 -113
173 -44 22 -48 22 -77 7 -19 -9 -41 -35 -56 -65 -39 -78 -68 -65 -128 58 -103
208 -160 304 -203 343 -44 39 -132 82 -152 74 -9 -4 -30 -9 -47 -11 -49 -6
-78 -35 -117 -114 -34 -70 -45 -106 -84 -280 -24 -108 -32 -217 -22 -298 6
-50 6 -78 -1 -85 -6 -6 -37 -11 -70 -13 -32 -1 -67 -5 -78 -8 -23 -7 -53 -74
-60 -136 -15 -126 78 -328 188 -408 20 -15 56 -44 80 -64 24 -21 70 -58 101
-83 32 -25 58 -50 58 -54 0 -5 -24 -19 -52 -31 -68 -29 -86 -45 -109 -98 -36
-83 -17 -144 63 -203 57 -42 92 -55 161 -63 32 -3 67 -11 79 -17 12 -6 58 -12
102 -14 51 -1 96 -8 121 -19 38 -17 39 -18 20 -31 -57 -39 -58 -41 -50 -73 7
-34 56 -87 104 -112 16 -8 71 -45 123 -82 117 -83 287 -163 329 -154 34 6 23
15 286 -236 27 -26 74 -63 103 -83 l54 -37 3 -195 c4 -216 -6 -280 -51 -349
-14 -22 -29 -42 -33 -46 -5 -4 -25 -22 -47 -41 -30 -26 -41 -44 -47 -80 -5
-26 -13 -68 -18 -95 -6 -26 -10 -96 -10 -157 l-1 -110 58 -57 c33 -32 80 -66
108 -78 52 -23 86 -55 108 -107 23 -50 56 -67 124 -59 31 3 104 9 162 12 122
7 160 23 213 84 44 52 73 131 87 237 14 104 11 155 -11 218 -10 28 -21 87 -24
132 l-7 83 116 115 c78 78 120 113 131 109 8 -4 15 -1 15 6 0 7 18 34 39 61
22 28 43 63 46 80 l7 29 30 -25 c16 -14 37 -25 46 -25 39 0 234 98 327 164 55
39 112 77 128 85 36 18 85 75 93 108 5 20 2 30 -12 39 -61 41 -61 40 -23 59
23 12 60 19 114 21 44 1 100 9 124 18 24 9 60 16 80 16 69 1 167 58 207 121
30 47 30 90 1 149 -18 36 -34 51 -82 77 -33 18 -64 34 -70 36 -14 6 50 71 91
93 19 10 34 21 34 25 0 3 35 34 78 67 88 70 113 99 160 191 65 129 77 244 32
331 -25 49 -28 51 -103 54 -35 1 -69 6 -75 10 -9 5 -11 39 -6 124 5 96 2 137
-15 227 -40 209 -91 353 -143 402 -13 12 -39 24 -58 26 -19 3 -42 8 -52 12
-25 10 -133 -51 -178 -102 -22 -25 -54 -75 -71 -112 -17 -36 -39 -77 -49 -91
-29 -41 -56 -93 -68 -130 -13 -40 -56 -90 -76 -90 -8 0 -28 25 -45 55 -40 70
-67 82 -124 57 -23 -11 -50 -28 -59 -38 -24 -27 -64 -138 -78 -214 -13 -71 0
-229 25 -313 15 -52 8 -93 -20 -103 -8 -3 -35 6 -59 20 -48 28 -85 32 -135 15
-57 -20 -83 -109 -61 -215 13 -66 34 -104 97 -182 45 -57 56 -90 26 -77 -34
15 -118 35 -143 35 -47 0 -53 -11 -48 -91 5 -103 38 -170 127 -261 76 -76 87
-104 45 -114 -32 -8 -40 -31 -42 -117 -2 -55 -8 -82 -34 -133 -32 -63 -32 -65
-19 -126 9 -44 9 -64 2 -66 -6 -2 -19 -23 -30 -46 -28 -64 -106 -159 -173
-212 -32 -25 -62 -44 -64 -41 -7 7 -20 683 -17 889 2 112 -1 158 -9 158 -8 0
-9 96 -3 368 12 588 13 903 3 960 -6 36 -4 95 6 193 27 242 21 274 -60 349
l-47 43 12 141 c36 436 35 425 22 464 -24 68 -32 72 -146 72 l-103 0 -68 58
c-38 31 -126 100 -194 152 -161 122 -233 191 -304 290 -274 381 -332 757 -179
1169 141 382 410 691 758 872 33 17 66 36 73 42 31 25 271 109 407 143 33 8
83 21 111 29 102 30 315 55 544 66 129 6 237 15 238 20 2 5 59 9 127 9 124 0
259 -21 354 -54 24 -9 55 -16 68 -16 14 0 82 -14 151 -31 70 -17 159 -37 197
-44 118 -23 209 -44 254 -60 24 -8 63 -15 86 -15 l43 0 -97 99 c-124 127 -170
161 -316 232 -66 32 -143 71 -170 86 -177 98 -463 167 -840 203 -126 12 -498
25 -505 18z m-10 -6582 c0 -3 -4 -8 -10 -11 -5 -3 -10 -1 -10 4 0 6 5 11 10
11 6 0 10 -2 10 -4z"/>
</g>
</svg>
