<svg version="1.1" id="Layer_1" xmlns="http://www.w3.org/2000/svg" xmlns:xlink="http://www.w3.org/1999/xlink" x="0px" y="0px"
	 width="100%" viewBox="0 0 560 560" enable-background="new 0 0 560 560" xml:space="preserve">
<path fill="#000000" opacity="1.000000" stroke="none" 
	d="
M352.086182,298.000000 
	C351.766418,321.484467 351.886597,344.474762 351.814575,367.457428 
	C351.761749,384.303284 350.578369,400.944763 348.257111,417.567841 
	C347.884674,420.234894 347.096283,422.639404 345.296448,424.825470 
	C336.391541,435.641449 327.203186,446.096558 315.543610,454.163483 
	C302.545227,463.156677 292.279480,475.011261 282.221649,487.036530 
	C280.540283,489.046753 279.238708,491.432739 276.989410,492.753906 
	C275.453461,492.582397 274.898895,491.458130 274.219666,490.566864 
	C261.290131,473.600433 245.820038,459.289642 228.667343,446.698944 
	C219.957962,440.305969 213.746902,431.453186 207.204651,423.132568 
	C203.454086,418.362549 204.753555,411.290131 203.756180,405.266235 
	C199.948776,382.270172 202.023300,359.067657 201.765762,335.959076 
	C201.399963,303.136597 201.961441,270.303162 201.524902,237.482422 
	C201.301239,220.667404 200.631821,203.840073 201.146988,187.040817 
	C201.591324,172.550827 201.354752,158.092880 201.109573,143.619476 
	C201.079315,141.832657 200.755234,139.933517 202.289825,138.175674 
	C205.871460,139.148773 208.412552,141.874725 211.229202,144.040344 
	C219.085083,150.080429 227.277786,155.060318 237.309753,156.965561 
	C252.749130,159.897736 264.525665,155.443481 273.350220,142.447845 
	C274.276520,141.083710 275.332489,139.807632 276.278778,138.556168 
	C278.242737,138.844421 278.739746,140.381866 279.549774,141.587494 
	C290.361908,157.679947 307.182617,162.231064 325.252167,154.480392 
	C332.903381,151.198532 339.148285,146.031219 345.777802,141.316193 
	C347.487091,140.100510 348.917633,138.291016 352.085846,138.346298 
	C352.085846,191.436417 352.085846,244.468216 352.086182,298.000000 
z"/>
<path fill="#000000" opacity="1.000000" stroke="none" 
	d="
M419.586029,237.589142 
	C430.535309,221.614182 430.421600,204.546555 426.294128,186.965988 
	C425.879456,185.199829 425.467438,183.453186 424.312653,181.905121 
	C419.739502,175.774628 415.340881,169.513184 410.725403,163.415482 
	C409.055939,161.209961 407.710541,157.134964 405.213867,157.506546 
	C401.329926,158.084625 396.996155,158.871445 393.879578,162.094269 
	C390.291534,165.804749 386.553009,169.369339 382.899597,173.017059 
	C375.003235,180.901108 367.135101,188.813522 359.214294,196.672913 
	C357.977264,197.900345 357.015839,199.661789 353.860931,199.586807 
	C354.989899,190.142212 350.236145,180.073120 360.058868,172.163559 
	C366.249268,167.178818 371.456421,160.978195 377.147919,155.366882 
	C381.060883,151.509003 385.198700,147.867599 386.331238,142.053391 
	C386.689667,140.213394 388.249176,138.991699 389.551819,137.691635 
	C400.395538,126.869431 411.391815,116.192230 421.968872,105.114914 
	C425.771332,101.132599 431.758698,102.123642 435.324524,98.059486 
	C435.984039,97.307770 437.153137,98.324112 437.921021,98.969315 
	C441.225342,101.745621 444.526794,104.525368 447.346313,107.785530 
	C446.651245,110.023361 445.106995,110.541000 444.491974,111.659286 
	C442.495758,115.288673 441.330627,118.589951 444.828796,122.453011 
	C461.049225,140.365448 481.271027,150.502609 504.909241,154.357101 
	C507.150330,154.722549 509.192627,153.997849 511.331177,153.829849 
	C513.305603,153.674713 515.306702,153.357330 517.312805,154.240402 
	C518.250549,156.309830 517.056702,158.074966 516.375610,159.853226 
	C505.877777,187.259842 489.451599,210.174286 465.298828,227.247772 
	C462.448273,229.262802 459.705536,231.455048 457.071472,233.747452 
	C444.764832,244.457855 429.934143,249.631210 414.409027,253.249634 
	C412.543243,253.684494 410.575684,254.538544 407.994446,253.403107 
	C411.800140,248.110092 416.605133,243.701721 419.586029,237.589142 
z"/>
<path fill="#000000" opacity="1.000000" stroke="none" 
	d="
M173.294434,131.176910 
	C170.318390,134.590897 167.574112,137.722565 164.835037,140.858765 
	C161.542511,144.628632 161.776398,150.089935 165.416565,153.354858 
	C165.866837,153.758713 166.702667,154.265305 167.110809,154.101974 
	C171.727448,152.254410 173.720337,155.874741 176.158737,158.405930 
	C183.093323,165.604340 189.949585,172.878189 196.859512,180.100464 
	C198.263443,181.567856 199.565491,183.012817 199.587830,185.231873 
	C199.720261,198.387314 199.895477,211.542328 200.019302,224.697845 
	C200.028412,225.666489 199.956512,226.730621 198.277908,227.629990 
	C194.828796,224.497253 191.121567,221.265747 187.565460,217.875702 
	C174.905380,205.806824 162.299896,193.680725 149.664963,181.585449 
	C147.962372,179.955582 146.061493,178.388000 146.898849,175.655350 
	C147.698700,173.045044 146.248917,171.854034 144.162186,171.241776 
	C141.497238,170.459869 139.088440,167.299179 135.961639,169.974197 
	C131.153061,174.087982 126.235031,178.105026 121.743607,182.547470 
	C118.704727,185.553207 120.729187,190.321442 118.629379,194.155502 
	C114.764526,194.855545 110.945473,193.507141 107.250587,192.286636 
	C104.017433,191.218658 104.634094,185.215195 108.461067,182.451431 
	C114.416565,178.150513 119.999672,173.418839 125.551453,168.635147 
	C128.328598,166.242218 131.286469,164.019836 130.716415,159.611206 
	C130.314514,156.502975 133.884140,157.314270 135.209229,155.593048 
	C133.107086,152.074554 129.952011,149.571152 127.118645,146.812759 
	C116.137398,136.122055 104.967636,125.622253 94.111725,114.806801 
	C89.644646,110.356354 85.679672,105.379463 81.706665,100.463921 
	C79.305664,97.493317 76.537254,95.347237 72.828186,94.400169 
	C71.708946,94.114395 70.571198,93.756683 69.561073,93.211266 
	C62.658253,89.484070 62.581005,88.602341 66.746300,81.942917 
	C69.124977,78.139923 72.252586,75.410095 76.001617,73.095627 
	C81.587181,69.647377 81.585175,69.551170 85.216507,75.089539 
	C85.671722,75.783813 86.333519,76.481995 86.441071,77.243156 
	C87.449745,84.381645 92.726395,88.173187 97.787033,92.291389 
	C114.518974,105.907379 127.888084,122.911697 143.365875,137.796875 
	C144.901901,139.274078 146.078873,141.185104 148.604385,142.190872 
	C149.726807,138.795731 151.920700,137.063202 155.759674,137.451767 
	C157.670731,137.645187 158.830139,135.607651 159.983459,134.228485 
	C164.895599,128.354370 169.737244,122.421158 174.586304,116.494530 
	C175.849442,114.950699 176.967529,113.346382 179.104553,112.776794 
	C182.865448,111.774376 185.644653,112.152466 186.048920,116.832222 
	C186.148682,117.987038 186.456055,119.125473 186.690369,120.266838 
	C187.854935,125.939468 187.529144,126.549721 181.585205,126.993263 
	C178.267365,127.240829 175.300186,127.695061 173.294434,131.176910 
z"/>
<path fill="#000000" opacity="1.000000" stroke="none" 
	d="
M110.724228,444.724182 
	C105.176254,450.274445 99.929024,455.626740 94.560089,460.854065 
	C91.425850,463.905701 88.704544,467.169312 86.954208,471.243500 
	C85.460922,474.719360 83.207298,478.190338 79.091789,477.884064 
	C73.965637,477.502594 69.456833,475.076630 67.223312,469.980377 
	C64.409813,463.560791 65.590897,459.946411 71.948494,457.032959 
	C76.616653,454.893707 80.342331,451.777527 83.886139,448.212799 
	C108.770271,423.181488 133.670013,398.165558 158.623611,373.203522 
	C170.042496,361.780731 181.575836,350.472015 193.106552,339.161835 
	C194.829865,337.471466 196.197937,335.240417 199.143692,334.535736 
	C201.382233,341.131561 199.924301,347.795868 199.848358,354.323578 
	C199.809525,357.660858 196.264648,359.359406 194.079269,361.546295 
	C166.416626,389.227936 138.686646,416.842285 110.724228,444.724182 
z"/>
<path fill="#000000" opacity="1.000000" stroke="none" 
	d="
M391.346802,411.653687 
	C379.503876,400.400604 367.914185,389.389832 356.324585,378.378967 
	C355.110687,377.225677 353.719940,376.067352 353.793610,374.249664 
	C354.147949,365.507050 353.120941,356.721771 354.270630,348.032837 
	C356.424652,347.512421 357.296570,348.954895 358.261108,349.969116 
	C388.899689,382.186035 419.863525,414.105011 449.935211,446.843353 
	C460.182556,457.999390 468.176056,471.225769 476.890869,483.768890 
	C443.993469,465.027374 418.670807,437.427002 391.346802,411.653687 
z"/>
</svg>