<?xml version="1.0" standalone="no"?>
<!DOCTYPE svg PUBLIC "-//W3C//DTD SVG 20010904//EN"
 "http://www.w3.org/TR/2001/REC-SVG-20010904/DTD/svg10.dtd">
<svg version="1.0" xmlns="http://www.w3.org/2000/svg"
 width="564.000000pt" height="812.000000pt" viewBox="0 0 564.000000 812.000000"
 preserveAspectRatio="xMidYMid meet">

<g transform="translate(0.000000,812.000000) scale(0.100000,-0.100000)"
fill="#000000" stroke="none">
<path d="M4387 7611 c-12 -213 -8 -307 18 -441 14 -69 25 -135 25 -148 0 -13
9 -44 19 -70 11 -26 40 -103 66 -172 26 -69 56 -147 67 -175 12 -32 25 -106
35 -204 15 -144 15 -161 -1 -270 -10 -64 -26 -152 -36 -196 -21 -92 -66 -302
-76 -358 -4 -27 -27 -62 -78 -122 -39 -46 -115 -135 -169 -199 -92 -107 -102
-116 -155 -133 -43 -13 -84 -17 -167 -15 l-110 2 -55 61 -56 60 -24 -26 c-14
-15 -46 -45 -72 -66 l-47 -40 -69 103 c-49 72 -134 171 -285 329 l-215 226
-56 123 c-31 68 -56 135 -56 150 0 17 -5 27 -15 27 -9 0 -15 -9 -15 -23 0 -21
-99 -249 -125 -287 -7 -9 -106 -115 -222 -235 -158 -164 -225 -241 -272 -314
-35 -54 -67 -98 -71 -98 -4 0 -40 30 -79 66 -40 37 -73 65 -74 63 -2 -2 -24
-29 -50 -60 l-47 -56 -99 -6 c-124 -8 -221 15 -261 60 -14 16 -53 60 -86 98
-34 39 -100 116 -147 171 -93 112 -81 81 -139 359 -11 55 -29 137 -39 183 -33
147 -42 256 -31 408 l9 139 86 230 c84 226 99 283 138 524 6 42 8 104 5 145
-4 39 -7 122 -8 184 0 62 -2 111 -4 109 -2 -2 -13 -69 -24 -149 l-20 -146 -93
-170 -92 -170 -118 -94 -119 -94 -79 -178 -79 -177 71 -352 c66 -331 77 -415
54 -410 -5 1 -43 135 -84 297 -75 295 -75 296 -87 253 -24 -81 -43 -144 -115
-370 l-72 -227 36 -223 c21 -122 51 -298 68 -392 26 -143 43 -305 33 -305 -2
0 -45 76 -96 169 -51 93 -95 168 -97 166 -2 -2 4 -102 13 -222 8 -120 18 -263
21 -318 6 -99 7 -102 68 -215 34 -65 103 -171 160 -243 54 -71 97 -131 95
-133 -2 -2 -56 28 -118 66 -63 37 -116 65 -118 61 -4 -11 77 -341 89 -362 5
-10 66 -47 136 -84 208 -110 274 -147 270 -152 -3 -2 -58 5 -123 16 -66 11
-143 23 -172 26 l-53 7 38 -59 c21 -32 71 -106 111 -165 l72 -108 63 0 c34 0
113 -3 176 -7 l113 -6 -63 -29 c-35 -16 -66 -32 -69 -37 -3 -4 -29 -14 -57
-21 -29 -6 -53 -15 -53 -18 1 -4 78 -44 172 -90 l172 -83 36 38 c20 21 73 81
118 134 l82 97 -1 58 c0 33 -6 129 -13 214 l-12 155 28 125 c16 69 34 150 39
180 18 92 16 91 106 68 43 -11 99 -34 125 -51 l48 -30 -6 -111 c-3 -61 -16
-282 -29 -491 -13 -209 -27 -452 -31 -540 l-7 -159 -45 -73 c-39 -64 -53 -77
-116 -113 -39 -22 -82 -49 -96 -60 -39 -31 -192 -31 -283 -1 -38 13 -70 21
-73 19 -2 -3 33 -36 79 -75 336 -286 265 -204 532 -613 49 -74 149 -227 223
-340 175 -266 371 -668 456 -935 l44 -140 2 55 c0 30 10 426 22 880 11 454 22
895 25 980 5 165 -7 255 -75 565 l-27 120 -133 198 c-73 109 -161 256 -197
327 -36 71 -65 132 -65 135 0 2 12 3 28 0 15 -2 84 -7 154 -11 l128 -6 147
-109 c82 -60 162 -120 179 -133 25 -20 36 -44 64 -135 19 -61 37 -111 41 -111
4 0 24 51 45 113 l36 114 179 131 178 131 151 8 c82 4 150 5 150 0 0 -30 -150
-295 -255 -451 -140 -208 -144 -218 -184 -436 -13 -69 -30 -154 -39 -190 -21
-88 -25 -192 -13 -330 11 -113 25 -669 37 -1454 4 -220 10 -393 14 -385 4 8
26 75 49 150 38 126 66 190 270 624 35 74 81 146 349 555 53 80 140 213 194
295 105 161 81 137 381 388 54 45 94 83 89 85 -4 1 -44 -8 -87 -22 -65 -19
-95 -22 -160 -18 -74 4 -85 8 -146 48 -37 24 -70 44 -74 44 -22 0 -67 48 -102
107 l-40 68 -17 290 c-26 438 -55 904 -61 961 l-5 52 50 32 c50 32 189 75 202
62 6 -6 24 -83 74 -304 16 -73 17 -92 2 -290 l-15 -213 109 -130 c61 -71 115
-134 121 -138 8 -6 76 23 185 77 183 90 187 95 99 111 -20 4 -37 11 -37 15 0
6 -30 22 -105 52 -28 11 -24 13 60 19 50 4 129 7 176 8 l86 1 112 166 112 166
-58 -7 c-32 -3 -107 -15 -168 -26 -170 -29 -176 -36 80 100 216 115 201 104
219 174 21 84 63 255 71 291 l6 28 -33 -20 c-121 -74 -204 -122 -211 -122 -5
0 9 21 31 48 90 109 182 244 235 346 48 92 57 118 57 162 0 28 9 170 21 314
11 144 19 264 17 266 -2 2 -46 -73 -97 -167 -52 -93 -96 -167 -98 -165 -3 2 0
20 5 40 6 21 7 34 1 31 -11 -8 -11 -1 1 66 9 51 34 199 81 474 11 66 27 161
36 210 l16 90 -48 150 c-26 83 -69 220 -96 305 -27 85 -49 164 -49 174 0 11
-2 17 -5 15 -2 -3 -32 -113 -65 -244 -33 -132 -64 -253 -69 -270 -5 -16 -12
-43 -15 -58 -4 -15 -11 -25 -16 -22 -15 9 -12 70 5 150 38 172 115 576 115
603 0 16 -26 87 -58 158 -32 71 -67 147 -77 170 -13 32 -45 62 -136 134 -114
89 -121 96 -167 184 -146 273 -139 257 -147 336 -3 41 -12 109 -19 150 l-12
75 -7 -124z"/>
</g>
</svg>
