<svg version="1.1" id="Layer_1" xmlns="http://www.w3.org/2000/svg" xmlns:xlink="http://www.w3.org/1999/xlink" x="0px" y="0px"
	 width="100%" viewBox="0 0 560 800" enable-background="new 0 0 560 800" xml:space="preserve">
<path fill="#000000" opacity="1.000000" stroke="none" 
	d="
M153.079590,597.206055 
	C157.497253,587.076538 161.279892,577.133911 162.808060,566.511536 
	C163.413010,562.306396 166.510788,559.576172 169.588379,558.575684 
	C178.368103,555.721497 183.297745,548.512207 189.873169,543.069275 
	C198.125671,536.238098 196.670715,527.990845 195.787308,519.475952 
	C195.429352,516.025757 192.092239,515.461060 189.647217,514.282593 
	C186.887817,512.952759 186.092499,511.857849 187.744583,508.635742 
	C197.335022,489.931427 209.390472,472.726868 220.108749,454.714142 
	C230.159302,437.823608 240.733398,421.272339 252.830719,405.740967 
	C261.335541,394.821869 270.884735,384.822418 280.373138,374.795258 
	C304.389496,349.415100 327.108704,322.874207 350.553833,296.993530 
	C382.875214,261.314423 405.851105,219.201263 433.702759,180.471191 
	C454.584351,151.433609 469.379150,119.236359 484.384308,87.141945 
	C488.904785,77.473190 490.636383,66.506554 493.729614,56.159603 
	C494.372650,54.008606 494.415192,51.541035 496.506348,49.729038 
	C498.974152,52.392227 498.021545,55.804981 498.842041,58.720840 
	C503.136566,73.982903 500.771637,89.377769 499.718323,104.767593 
	C499.014404,115.052620 498.290253,125.330185 497.439728,135.606354 
	C494.870544,166.647507 489.980042,197.283173 481.893066,227.363144 
	C473.495514,258.598236 462.650513,288.999939 448.541321,318.105591 
	C443.982544,327.509888 435.699768,334.615173 429.515015,343.072632 
	C420.111420,355.931763 406.724884,364.394470 394.918793,374.599609 
	C372.959167,393.581512 349.034027,409.837708 325.073059,426.161438 
	C306.798096,438.611481 291.494537,454.546143 277.010345,471.560242 
	C254.370743,498.154175 236.265396,527.654541 219.283905,557.741394 
	C203.024414,586.549011 189.671341,616.957397 177.362183,647.778809 
	C166.367569,675.308594 156.238022,703.100159 147.225342,731.331970 
	C144.199738,740.809509 143.701996,750.580444 142.485779,760.267883 
	C142.046890,763.763855 140.936234,766.172729 138.115524,768.117615 
	C134.435318,770.655273 130.426208,773.016968 130.175568,778.301758 
	C130.122101,779.429199 129.261505,780.208313 128.173355,780.149170 
	C122.100517,779.819031 117.497055,783.471008 112.423630,785.840210 
	C106.513176,788.600281 102.868378,786.129272 103.453720,779.611938 
	C103.618042,777.782410 102.814301,776.402527 102.090927,774.921692 
	C99.577431,769.776489 95.753838,765.569458 92.242599,761.134216 
	C88.449715,756.343262 90.080719,745.499939 95.185028,742.039612 
	C98.775734,739.605347 103.058174,737.775269 99.311852,732.136536 
	C98.335144,730.666443 99.782768,728.631287 100.405525,726.922852 
	C102.913231,720.043152 105.110275,713.026855 108.044144,706.333740 
	C110.147881,701.534424 110.013062,697.267700 108.234573,692.467102 
	C107.144867,689.525696 104.355209,685.695374 106.737846,683.161438 
	C109.701508,680.009644 114.140472,677.615662 118.728050,677.745422 
	C123.304291,677.874817 124.817390,675.984619 125.504326,671.894714 
	C128.628677,653.292969 137.908157,636.849243 144.218231,619.360901 
	C146.872650,612.004211 150.005936,604.820251 153.079590,597.206055 
z"/>
<path fill="#000000" opacity="1.000000" stroke="none" 
	d="
M164.520874,346.440735 
	C158.186005,338.474945 152.202728,330.680542 145.925659,323.130371 
	C143.620010,320.357086 142.255341,317.205200 140.799042,314.052307 
	C127.236900,284.689911 116.255829,254.392670 108.377106,223.016617 
	C105.183945,210.300262 101.912437,197.550339 99.786316,184.633041 
	C97.255226,169.255310 95.754280,153.698578 94.102341,138.187958 
	C91.954834,118.024261 90.620682,97.789864 89.823051,77.529121 
	C89.448700,68.020142 92.602898,59.040318 94.032906,49.807842 
	C96.501564,50.071625 96.508118,51.724823 96.736504,52.867764 
	C102.722420,82.824356 117.446686,109.229614 130.440475,136.358063 
	C139.920929,156.151291 153.400879,173.386429 165.230072,191.670624 
	C179.335846,213.473679 194.044708,234.886200 208.187836,256.665619 
	C218.405090,272.399506 231.440918,285.762146 243.564468,299.887604 
	C258.629547,317.440308 274.023682,334.710571 289.266876,352.110535 
	C290.010254,352.959106 290.668732,353.882019 291.614746,355.085876 
	C281.938538,365.632141 272.389648,376.022461 262.861023,386.431366 
	C256.905731,392.936737 250.797729,399.316101 245.126801,406.061829 
	C242.622574,409.040710 240.989273,409.173401 237.794662,406.985199 
	C217.693726,393.217194 199.559006,376.992340 180.669479,361.713348 
	C174.989532,357.119049 168.880493,352.960846 164.520874,346.440735 
z"/>
<path fill="#000000" opacity="1.000000" stroke="none" 
	d="
M459.640564,773.630249 
	C450.067902,767.842163 447.861053,759.197021 447.396667,748.969482 
	C446.631073,732.107422 439.234955,716.823181 433.949463,701.134033 
	C419.801300,659.137329 402.122437,618.598694 382.959412,578.630127 
	C369.431976,550.415771 352.077240,524.570740 335.416504,498.336121 
	C326.650360,484.532654 314.735199,472.723267 304.183105,460.062469 
	C299.533447,454.483643 299.530273,454.534027 304.853577,449.860718 
	C309.605225,445.689270 314.595490,441.694946 318.790649,437.005402 
	C325.986755,428.961212 335.606049,424.602448 344.369934,418.916016 
	C347.681854,416.767120 349.021729,418.770294 350.561249,421.269897 
	C364.706146,444.235962 378.919373,467.159943 393.095398,490.106842 
	C396.848816,496.182587 400.551147,502.267731 403.682220,508.726044 
	C405.097229,511.644592 404.863892,513.243164 402.048035,514.011414 
	C395.704315,515.742065 394.970734,520.206238 395.039337,525.863281 
	C395.099030,530.782715 393.594177,535.491455 398.335449,539.548157 
	C404.597626,544.906128 408.622925,552.739624 416.604523,556.263000 
	C418.568085,557.129761 420.795227,557.605957 422.490143,558.830627 
	C425.708862,561.156311 427.910309,563.926025 428.749268,568.366760 
	C432.267395,586.988647 441.268707,603.726929 447.802765,621.322205 
	C454.272614,638.744446 463.176392,655.318665 466.228760,673.930420 
	C466.651550,676.508362 467.787964,677.916199 470.512268,677.563843 
	C475.601288,676.905579 479.279968,680.246094 483.459290,682.130188 
	C485.625061,683.106506 485.627930,685.121277 484.705750,686.829651 
	C479.126099,697.165894 482.682617,706.717651 486.880432,716.329468 
	C488.675140,720.438904 489.942871,724.775757 491.565033,728.964722 
	C492.212708,730.637146 492.490784,732.216553 491.339508,733.682617 
	C488.910370,736.775879 490.719208,738.831848 493.291321,739.996826 
	C500.361328,743.198792 500.143463,749.943848 501.503052,755.946045 
	C501.976318,758.035400 500.344421,759.311462 499.284576,760.749573 
	C496.131500,765.028076 492.294647,768.802490 489.915344,773.652405 
	C488.674408,776.181946 487.481934,778.463867 488.217377,781.643738 
	C489.037140,785.188354 484.477570,788.068909 480.754913,786.534790 
	C477.528259,785.204956 474.468262,783.475342 471.302155,781.991699 
	C469.955444,781.360596 468.446594,780.305115 467.148224,780.476746 
	C461.980499,781.160217 460.517120,778.082825 459.640564,773.630249 
z"/>
<path fill="#000000" opacity="1.000000" stroke="none" 
	d="
M252.402603,772.701050 
	C245.284012,773.572144 239.188065,772.327332 233.868195,767.850281 
	C227.266403,762.294373 220.368362,757.235901 216.041672,749.297058 
	C211.863129,741.630005 212.974472,736.685364 221.149872,732.894165 
	C222.506516,732.265015 223.880188,731.596069 225.318481,731.231323 
	C241.238953,727.194031 251.739609,717.203186 257.621307,702.055908 
	C258.160522,700.667297 258.788727,699.247314 259.679504,698.072205 
	C263.950500,692.437805 264.399567,684.273499 272.384186,681.009583 
	C286.573181,675.209290 300.658569,671.549011 315.834747,677.208374 
	C331.663757,683.111145 331.690643,682.973572 339.184601,698.385925 
	C341.438477,703.021240 343.927307,707.541870 346.275970,712.131653 
	C350.009613,719.427856 356.024597,724.179565 363.392181,727.342102 
	C367.823792,729.244324 372.324890,730.996765 376.852234,732.659973 
	C380.894379,734.144775 383.057678,737.508728 385.441711,740.702332 
	C386.373871,741.951050 386.102051,743.088867 385.487885,744.411194 
	C380.248199,755.692871 371.265259,763.629639 361.248230,770.251099 
	C357.104279,772.990356 351.685638,773.994873 346.347473,772.704163 
	C337.143768,770.478638 327.838776,768.623718 318.729767,766.066650 
	C306.081787,762.516052 293.575378,762.459106 280.908020,765.795959 
	C271.595154,768.249146 262.187378,770.342041 252.402603,772.701050 
z"/>
<path fill="#000000" opacity="1.000000" stroke="none" 
	d="
M256.121124,651.862732 
	C246.595612,643.709045 244.295105,633.356323 244.623672,621.699585 
	C244.811340,615.041992 245.344101,608.431458 245.825653,601.809265 
	C246.146683,597.394531 247.779892,593.678467 251.359879,590.597717 
	C258.326538,584.602600 264.159485,577.575562 268.594574,569.445740 
	C271.431580,564.245361 276.840576,563.458191 282.465942,561.228577 
	C281.483490,566.195190 278.406342,569.789124 279.300720,574.285645 
	C279.620270,575.892273 279.244873,577.680603 280.615234,578.939758 
	C289.478638,587.084290 290.009491,598.704163 293.353333,609.176453 
	C297.901886,623.422058 293.939880,637.398621 292.833618,651.556213 
	C292.215637,659.464172 289.020660,662.249390 281.777039,663.656677 
	C272.754547,665.409607 265.989655,662.300049 259.918152,656.302063 
	C258.621948,655.021545 257.536804,653.527405 256.121124,651.862732 
z"/>
<path fill="#000000" opacity="1.000000" stroke="none" 
	d="
M338.951782,655.965332 
	C331.911774,664.308899 318.296722,666.532166 308.723114,661.259277 
	C307.106110,660.368713 306.896240,659.117493 306.701721,657.595520 
	C305.418030,647.551331 303.666443,637.544434 302.909729,627.462219 
	C302.231842,618.430603 305.007202,609.675476 307.380890,601.069885 
	C309.516785,593.326355 311.314240,585.436035 317.498352,579.194214 
	C320.508209,576.156250 319.270416,571.004761 318.019440,566.785645 
	C317.564728,565.252075 316.307465,563.956299 316.613129,561.456055 
	C321.771759,563.339844 327.168915,564.173218 329.950714,569.343933 
	C334.599792,577.985535 341.109802,585.043884 348.246490,591.592163 
	C350.823669,593.956848 352.017212,596.593689 352.516144,600.178589 
	C354.017059,610.962524 353.379974,621.730957 353.315430,632.521606 
	C353.286804,637.306274 351.897583,641.148499 348.492249,644.605408 
	C345.116730,648.032043 342.268341,651.977905 338.951782,655.965332 
z"/>
<path fill="#000000" opacity="1.000000" stroke="none" 
	d="
M209.328247,699.602295 
	C203.523758,691.749817 200.422897,683.389465 200.279343,673.881409 
	C200.240189,671.287476 200.627075,669.084778 201.612137,666.702148 
	C207.427032,652.637512 215.360092,639.755920 223.330078,626.873047 
	C226.142258,622.327393 230.320709,619.696350 234.583588,616.807800 
	C236.253281,619.602112 234.498169,621.539001 234.249390,623.580750 
	C233.110428,632.928345 234.926102,641.802307 240.376129,649.212097 
	C247.282257,658.601685 250.073883,669.563843 253.833405,680.132202 
	C256.608673,687.933777 250.898346,702.068542 243.790390,707.187134 
	C237.916885,711.416809 232.484818,716.332397 223.930313,713.611511 
	C218.273529,711.812256 215.712891,707.230347 211.971832,703.663940 
	C210.919022,702.660278 210.324142,701.176208 209.328247,699.602295 
z"/>
<path fill="#000000" opacity="1.000000" stroke="none" 
	d="
M361.224243,644.098938 
	C364.626343,635.242249 366.179352,626.580017 363.153839,617.359436 
	C368.151855,619.193298 372.003357,621.755310 374.463867,625.758179 
	C382.212891,638.364502 389.939880,650.951782 396.077850,664.514893 
	C399.748077,672.625000 398.410889,680.602295 395.875397,687.722595 
	C393.102539,695.509399 388.253021,702.821350 382.023407,708.854858 
	C375.308899,715.358032 367.574646,715.912842 359.721497,710.759155 
	C349.643616,704.145508 343.704163,695.558716 344.629028,683.040100 
	C344.778229,681.020447 345.207001,679.142395 345.751953,677.207642 
	C349.066284,665.440552 354.366180,654.621460 361.224243,644.098938 
z"/>
</svg>