<?xml version="1.0" standalone="no"?>
<!DOCTYPE svg PUBLIC "-//W3C//DTD SVG 20010904//EN"
 "http://www.w3.org/TR/2001/REC-SVG-20010904/DTD/svg10.dtd">
<svg version="1.0" xmlns="http://www.w3.org/2000/svg"
 width="564.000000pt" height="707.000000pt" viewBox="0 0 564.000000 707.000000"
 preserveAspectRatio="xMidYMid meet">

<g transform="translate(0.000000,707.000000) scale(0.100000,-0.100000)"
fill="#000000" stroke="none">
<path d="M2751 6652 c-32 -10 -37 -30 -45 -182 -4 -69 -9 -133 -12 -142 -4
-12 12 -36 45 -71 28 -30 51 -58 51 -62 0 -5 -23 -42 -51 -82 -42 -61 -51 -82
-53 -123 -1 -27 -4 -52 -7 -54 -3 -3 -78 -2 -167 3 l-161 9 -283 167 c-156 92
-326 193 -378 224 -89 53 -102 57 -220 77 -77 13 -130 17 -137 11 -12 -9 -82
-36 -258 -101 -49 -19 -142 -54 -207 -79 -64 -25 -237 -80 -385 -122 -147 -42
-277 -80 -287 -84 -16 -6 -8 -15 50 -56 38 -26 116 -94 174 -149 58 -56 178
-172 267 -257 l162 -156 103 -26 c303 -75 386 -102 723 -232 33 -13 80 -30
105 -38 25 -9 87 -32 138 -51 78 -30 107 -36 169 -36 l75 0 151 89 c112 65
176 95 242 115 50 14 96 26 103 26 10 0 12 -18 6 -82 -5 -67 3 -160 41 -471
25 -214 44 -391 41 -394 -3 -3 -59 -1 -123 6 -85 8 -155 23 -246 52 -71 22
-132 38 -135 34 -8 -7 130 -285 141 -285 5 0 29 23 54 50 25 28 53 54 62 59 9
6 42 4 81 -3 75 -13 69 3 57 -164 -8 -99 -12 -116 -34 -142 -16 -20 -23 -36
-18 -48 7 -18 10 -71 20 -367 4 -99 8 -200 10 -225 2 -25 9 -169 15 -320 6
-151 15 -347 20 -435 5 -88 14 -272 20 -410 6 -137 17 -389 25 -560 8 -170 19
-405 25 -521 8 -183 15 -237 50 -410 23 -109 48 -233 55 -274 8 -41 18 -86 21
-100 4 -16 26 80 64 275 51 268 58 319 64 480 20 521 25 676 31 845 6 180 14
393 35 900 13 311 30 864 31 995 1 54 5 109 10 121 6 17 2 30 -14 50 -16 21
-25 56 -38 158 -9 72 -15 134 -13 138 2 3 37 12 76 18 l72 13 59 -63 c32 -34
60 -60 62 -58 12 13 135 271 135 284 0 11 -5 14 -17 9 -10 -4 -72 -24 -138
-44 -121 -39 -329 -71 -346 -54 -7 7 16 244 65 663 8 69 12 155 9 193 -3 37
-2 67 3 67 21 0 137 -40 159 -54 13 -9 39 -24 57 -35 18 -10 73 -42 121 -70
85 -49 92 -51 162 -51 55 0 92 7 151 29 81 29 307 113 424 158 183 69 356 121
637 190 31 8 50 25 418 383 77 75 168 155 202 178 34 23 64 46 68 51 3 6 -14
15 -37 21 -185 50 -538 155 -603 180 -75 29 -265 101 -415 156 -35 14 -73 30
-85 37 -17 11 -41 10 -145 -7 -141 -24 -76 10 -605 -306 -132 -79 -256 -149
-275 -156 -21 -8 -83 -13 -152 -14 l-118 0 0 48 c0 42 -7 58 -50 120 -27 39
-50 79 -50 89 0 9 20 38 45 63 l44 45 -14 169 c-8 92 -16 170 -18 173 -9 8
-142 12 -166 5z m-901 -979 c138 -87 250 -161 250 -164 0 -4 -32 -10 -71 -13
-71 -7 -72 -7 -385 96 -172 57 -314 106 -314 109 0 5 248 126 263 128 4 1 120
-70 257 -156z m2269 95 c72 -33 131 -64 131 -67 0 -3 -141 -52 -313 -109
l-312 -103 -72 7 c-40 4 -73 10 -73 13 1 3 20 18 43 32 23 15 78 49 122 77
256 164 331 210 337 211 3 1 65 -27 137 -61z"/>
</g>
</svg>
