<svg version="1.1" id="Layer_1" xmlns="http://www.w3.org/2000/svg" xmlns:xlink="http://www.w3.org/1999/xlink" x="0px" y="0px"
	 width="100%" viewBox="0 0 224 432" enable-background="new 0 0 224 432" xml:space="preserve">
<path fill="#000000" opacity="1.000000" stroke="none" 
	d="
M187.353760,374.208862 
	C176.301987,395.611053 161.215042,412.211823 137.438141,418.317810 
	C127.178818,420.952454 116.787003,421.462891 105.729897,419.836609 
	C70.822151,414.702332 53.445580,391.369110 41.996170,361.528442 
	C36.254440,346.563690 33.806908,330.690613 34.805695,314.598816 
	C35.629536,301.325531 38.319004,288.285034 42.823311,275.749756 
	C45.982582,266.957642 48.181324,257.888123 50.216885,248.867798 
	C53.898788,232.551926 61.906303,218.129440 68.661163,203.175766 
	C75.991318,186.948547 83.343536,170.785858 88.345512,153.637741 
	C91.694138,142.157745 95.167534,130.700790 99.053574,119.394547 
	C103.191887,107.354332 103.917068,94.684532 106.587067,82.381210 
	C108.094543,75.434761 108.976959,68.361481 110.294868,61.365570 
	C112.096710,51.800774 112.838326,42.034916 113.984200,32.349304 
	C114.159485,30.867682 113.993469,29.348228 114.116791,27.857147 
	C114.226662,26.528675 114.382187,25.061314 116.194290,24.968794 
	C118.053329,24.873877 118.128258,26.290968 118.412842,27.644066 
	C120.078354,35.562984 122.143784,43.413486 123.448769,51.389412 
	C126.601212,70.656693 128.935654,90.069641 132.552795,109.244095 
	C134.386932,118.966774 138.228180,128.318161 141.262451,137.805298 
	C145.361008,150.620163 148.781662,163.722931 153.888092,176.127975 
	C161.923935,195.649384 171.260788,214.631378 179.760483,233.967606 
	C183.172440,241.729584 184.318863,250.245361 186.642639,258.377594 
	C189.924652,269.863220 193.629166,281.254028 196.314178,292.879150 
	C202.767242,320.818359 199.490097,347.851807 187.353760,374.208862 
M148.198944,337.375885 
	C149.011246,341.554321 147.832382,343.864044 143.050110,343.147675 
	C138.675323,342.492340 136.766922,344.885254 135.845520,348.896759 
	C135.386902,350.893372 136.005478,353.668793 133.168152,354.843689 
	C131.405975,352.838257 131.227127,350.612762 132.202194,348.665436 
	C133.981766,345.111450 134.933578,340.982208 137.100525,337.897858 
	C141.822418,331.176941 140.787216,324.132935 140.514450,316.788879 
	C140.187973,307.999115 130.810730,303.368164 131.364670,294.314941 
	C129.081680,296.961548 129.519516,299.678650 129.647659,302.504364 
	C129.948685,309.142120 129.987183,315.811096 125.147957,321.277618 
	C124.363487,322.163788 123.751778,323.255157 122.367538,322.980133 
	C120.858772,322.680328 120.901146,321.359955 120.820160,320.214569 
	C120.749817,319.219666 120.571075,318.158478 120.817642,317.226440 
	C123.614250,306.654510 122.043190,296.053070 120.561447,285.588104 
	C119.064323,275.014679 119.261101,264.013702 113.207024,254.357712 
	C110.936790,250.736740 110.076180,246.288513 112.246780,241.900116 
	C112.789757,240.802368 113.164764,239.334167 111.470024,238.234802 
	C107.434990,242.374496 110.149750,247.510254 109.679283,252.019165 
	C109.219879,256.422150 110.146240,260.963287 111.587082,265.551880 
	C114.487167,274.787598 114.105133,284.371826 111.434975,293.952667 
	C109.607292,300.510590 103.551407,302.661041 100.327156,307.458160 
	C96.476395,300.769775 103.199829,293.586029 99.097473,286.782928 
	C97.075005,288.176788 97.162865,290.060852 95.841965,291.278900 
	C89.828255,296.824402 85.387703,303.174591 86.222366,312.007050 
	C86.487312,314.810760 86.194687,317.666199 86.174568,320.498077 
	C86.147415,324.319702 86.328041,327.868439 88.632477,331.420868 
	C90.593826,334.444427 90.807938,338.453674 89.579216,342.711792 
	C87.860748,336.525909 80.040199,339.956055 78.044472,333.360199 
	C75.561539,341.235016 79.054977,346.076019 82.941330,350.905029 
	C85.137146,353.633423 88.618584,355.799255 88.276665,359.920197 
	C87.751221,366.253143 91.409996,369.812714 96.296761,372.559052 
	C100.870621,375.129547 106.182350,377.735840 110.958336,377.010468 
	C115.293518,376.352051 118.397011,376.534302 122.051399,378.642059 
	C126.534500,381.227844 129.178360,379.821442 130.689972,374.646698 
	C130.981659,373.648193 131.164185,372.481110 132.203125,372.258636 
	C136.961761,371.239594 139.904434,366.506958 145.192383,366.316162 
	C148.112457,366.210815 149.734909,363.969391 150.964325,360.944672 
	C153.534256,354.621948 152.396225,347.818878 154.374893,341.392181 
	C155.512604,337.696930 153.773499,333.661926 149.162949,331.997650 
	C148.039062,333.620514 148.227173,335.140259 148.198944,337.375885 
z"/>
</svg>