<?xml version="1.0" standalone="no"?>
<!DOCTYPE svg PUBLIC "-//W3C//DTD SVG 20010904//EN"
 "http://www.w3.org/TR/2001/REC-SVG-20010904/DTD/svg10.dtd">
<svg version="1.0" xmlns="http://www.w3.org/2000/svg"
 width="564.000000pt" height="822.000000pt" viewBox="0 0 564.000000 822.000000"
 preserveAspectRatio="xMidYMid meet">

<g transform="translate(0.000000,822.000000) scale(0.100000,-0.100000)"
fill="#000000" stroke="none">
<path d="M3124 7788 c-11 -17 -18 -161 -10 -203 6 -32 10 -36 33 -33 35 4 47
47 40 147 -3 57 -9 77 -23 88 -22 16 -31 16 -40 1z"/>
<path d="M3902 7548 c-37 -40 -56 -118 -32 -133 6 -4 26 10 45 30 34 36 44 71
29 109 -8 21 -17 20 -42 -6z"/>
<path d="M2346 7553 c-15 -15 -4 -63 22 -99 53 -72 82 -81 82 -25 0 41 -85
143 -104 124z"/>
<path d="M3035 7011 c-92 -13 -208 -54 -257 -91 -26 -19 -73 -51 -104 -70 -40
-25 -71 -56 -109 -110 -116 -166 -130 -219 -129 -490 1 -231 8 -264 74 -398
57 -116 86 -145 205 -201 56 -27 115 -62 131 -79 17 -16 59 -44 95 -62 87 -43
245 -165 279 -215 65 -96 70 -113 70 -263 0 -90 -5 -158 -15 -195 -8 -32 -15
-66 -15 -76 0 -10 -23 -51 -50 -92 -58 -85 -83 -158 -110 -319 -37 -214 -22
-319 53 -391 37 -37 66 -52 51 -28 -3 6 -1 15 6 19 9 6 9 13 1 28 -15 28 -14
42 4 42 12 0 13 4 5 19 -7 14 -7 20 2 23 8 3 5 16 -11 41 -19 31 -20 36 -5 30
15 -6 16 -1 11 42 -4 26 -12 54 -18 61 -17 21 -2 61 39 107 66 73 157 190 183
237 39 69 52 181 47 415 -4 189 -6 204 -32 270 -45 114 -57 133 -144 231 -74
83 -167 164 -186 164 -4 0 -54 32 -111 70 -101 69 -168 139 -211 222 -44 86
-90 380 -73 466 9 47 19 62 87 131 127 128 219 157 467 148 154 -5 197 -17
246 -66 46 -46 59 -91 59 -211 0 -161 -18 -192 -130 -228 -36 -11 -83 -28
-105 -37 -22 -10 -66 -21 -99 -26 -49 -6 -65 -5 -88 9 -30 18 -34 27 -41 105
-4 43 -1 51 32 88 36 41 36 41 78 30 23 -6 56 -23 73 -38 26 -21 33 -24 41
-12 16 26 10 122 -10 155 -17 28 -25 32 -84 38 -81 9 -117 -5 -175 -68 -65
-71 -85 -124 -85 -226 0 -102 9 -124 90 -204 80 -80 145 -110 253 -114 47 -2
88 -9 92 -15 4 -7 20 -4 50 9 23 10 46 18 51 16 25 -8 145 76 167 117 8 15 27
47 43 70 53 79 80 182 92 344 6 84 4 94 -31 195 -63 184 -83 211 -224 308
-109 76 -119 78 -305 80 -93 1 -192 -1 -220 -5z"/>
<path d="M4280 6989 c-29 -12 -40 -26 -40 -56 0 -28 35 -31 80 -8 23 12 30 22
30 45 0 25 -4 30 -22 29 -13 0 -34 -5 -48 -10z"/>
<path d="M1927 6873 c-11 -11 -8 -58 6 -74 18 -23 87 -60 98 -54 5 4 9 18 9
33 0 20 -12 37 -46 65 -48 38 -56 42 -67 30z"/>
<path d="M4883 4999 c-53 -46 -104 -115 -199 -269 -20 -33 -39 -58 -42 -55 -3
3 8 37 23 75 l29 71 -31 31 c-28 28 -33 29 -51 16 -67 -46 -132 -126 -247
-299 -125 -189 -128 -197 -188 -367 l-60 -173 18 -52 17 -52 -79 -181 c-61
-138 -96 -204 -148 -275 -82 -113 -74 -103 -79 -98 -13 12 63 216 140 377 l87
182 -28 40 c-15 22 -29 40 -31 40 -2 0 -51 -18 -109 -41 l-105 -40 -91 -112
c-50 -61 -121 -157 -157 -214 -37 -58 -107 -157 -155 -221 -85 -113 -139 -192
-250 -370 l-52 -83 -232 -105 c-199 -89 -246 -106 -325 -119 -51 -8 -96 -15
-99 -15 -3 0 -25 -28 -49 -62 -24 -35 -52 -73 -63 -86 -13 -14 -21 -38 -22
-65 -2 -56 -7 -62 -63 -91 -26 -13 -60 -38 -76 -55 -18 -19 -40 -31 -55 -31
-41 0 -229 45 -330 79 -51 17 -94 31 -97 31 -3 0 -25 -43 -51 -96 -85 -177
-183 -248 -384 -279 -33 -5 -38 -10 -58 -61 -11 -30 -56 -135 -98 -232 -75
-170 -81 -180 -158 -262 -122 -130 -195 -212 -195 -220 0 -7 195 -96 470 -213
347 -149 488 -210 650 -287 186 -88 201 -93 224 -84 13 5 14 9 4 21 -14 18 -9
15 162 -68 133 -65 212 -93 255 -91 45 3 144 34 149 47 2 6 -1 35 -7 65 -17
86 5 299 43 411 63 188 147 333 231 400 46 36 92 124 144 274 15 44 32 86 38
92 12 17 47 -1 47 -25 1 -16 1 -16 11 1 8 13 4 25 -16 52 -21 27 -25 41 -20
65 6 28 5 30 -23 30 -16 0 -35 7 -42 15 -7 8 -19 15 -28 15 -11 0 -9 5 8 20
13 11 31 20 41 20 24 0 33 18 19 35 -10 12 2 21 67 53 43 21 123 72 178 114
55 42 203 136 330 209 196 113 241 135 310 151 143 33 167 44 227 106 48 49
60 68 79 132 12 42 104 238 208 445 179 355 207 419 302 675 104 283 143 371
214 490 59 100 75 133 75 165 0 51 -10 65 -51 74 -33 8 -37 5 -147 -102 -61
-61 -115 -108 -118 -104 -3 3 53 126 125 273 72 147 129 269 126 272 -3 3 -23
13 -45 23 l-40 18 -57 -50z"/>
<path d="M3195 3309 c-66 -32 -198 -88 -294 -124 l-174 -66 -106 -100 c-94
-90 -112 -112 -154 -196 -27 -52 -46 -97 -44 -99 2 -2 47 5 101 16 81 16 109
28 175 70 43 28 141 77 216 110 76 33 143 65 151 71 7 6 43 56 81 112 37 56
93 139 125 185 32 45 54 82 50 81 -4 0 -61 -27 -127 -60z"/>
</g>
</svg>
